<svg xmlns="http://www.w3.org/2000/svg" xmlns:xlink="http://www.w3.org/1999/xlink" width="448" height="279" viewBox="0 0 448 279" style="stroke:none"><title>Figure n°2</title><desc>Creator: GL2PS 1.3.2, (C) 1999-2006 Christophe Geuzaine (geuz@geuz.org) For: Scilab CreationDate: Wed Nov 30 18:04:55 2011</desc><polygon fill="#fff" points="0 0 448 0 448 279 0 279"/><g><polygon fill="#fff" points="56 244.125 56 34.875 56 34.875"/><polygon fill="#fff" points="56 244.125 56 34.875 56 244.125"/><polygon fill="#fff" points="56 244.125 392 244.125 392 244.125"/><polygon fill="#fff" points="56 244.125 392 244.125 56 244.125"/><polygon fill="#fff" points="56 244.125 392 244.125 392 34.875"/><polygon fill="#fff" points="56 244.125 392 34.875 56 34.875"/><polyline fill="none" stroke="#000" stroke-width=".5" points="56.001 160.375 56.702 160.617 57.404 161.365 58.105 162.698 58.807 164.792 59.508 168.027 60.209 173.43 60.911 185.904 61.612 184.822 62.314 172.6 63.015 166.958 63.717 163.404 64.418 160.952 65.12 159.225 65.821 158.044 66.522 157.318 67.224 157.004 67.925 157.091 68.627 157.602 69.329 158.593 70.03 160.183 70.731 162.607 71.433 166.401 72.134 173.194 72.835 198.582 73.537 175.25 74.239 166.543 74.94 161.713 75.642 158.459 76.343 156.108 77.044 154.375 77.746 153.114 78.447 152.245 79.149 151.725 79.85 151.537 80.552 151.681 81.253 152.18 81.955 153.083 82.656 154.477 83.357 156.529 84.059 159.578 84.76 164.463 85.462 174.543 86.164 182.067 86.865 166.234 87.566 159.853 88.268 155.88 88.969 153.087 89.671 151.029 90.372 149.498 91.074 148.382 91.775 147.617 92.477 147.171 93.178 147.028 93.879 147.19 94.581 147.677 95.282 148.53 95.984 149.823 96.685 151.688 97.387 154.382 98.088 158.484 98.79 165.818 99.491 203.212 100.192 166.316 100.894 158.191 101.596 153.583 102.297 150.452 102.999 148.175 103.7 146.481 104.401 145.23 105.103 144.343 105.804 143.776 106.506 143.505 107.207 143.524 107.909 143.843 108.61 144.485 109.312 145.501 110.013 146.976 110.714 149.064 111.416 152.071 112.117 156.728 112.819 165.667 113.521 181.358 114.222 160.865 114.923 154.002 115.625 149.871 116.326 147.009 117.027 144.916 117.729 143.359 118.431 142.219 119.132 141.425 119.833 140.938 120.535 140.737 121.236 140.818 121.938 141.189 122.639 141.876 123.341 142.925 124.042 144.417 124.744 146.498 125.445 149.448 126.146 153.922 126.848 162.123 127.549 188.621 128.251 159.997 128.952 152.668 129.654 148.396 130.355 145.481 131.057 143.368 131.758 141.806 132.459 140.666 133.161 139.871 133.863 139.377 134.564 139.158 135.266 139.204 135.967 139.513 136.668 140.099 137.37 140.987 138.071 142.221 138.773 143.876 139.474 146.085 140.176 149.095 140.877 153.456 141.579 160.846 142.28 188.586 142.981 163.381 143.683 155.224 144.384 150.823 145.086 147.943 145.788 145.917 146.489 144.449 147.19 143.382 147.892 142.615 148.593 142.076 149.294 141.707 149.996 141.454 150.698 141.266 151.399 141.09 152.101 140.875 152.802 140.574 153.503 140.146 154.205 139.567 154.906 138.833 155.608 137.958 156.309 136.976 157.011 135.93 157.712 134.871 158.414 133.853 159.115 132.929 159.816 132.153 160.518 131.586 161.219 131.302 161.921 131.402 162.623 132.048 163.324 133.54 164.025 136.565 164.727 143.478 165.428 163.423 166.13 137.165 166.831 128.376 167.533 122.479 168.234 117.864 168.936 113.994 169.637 110.619 170.338 107.604 171.04 104.866 171.741 102.351 172.443 100.022 173.144 97.851 173.846 95.817 174.547 93.904 175.249 92.1 175.95 90.393 176.651 88.776 177.353 87.241 178.055 85.783 178.756 84.395 179.458 83.074 180.159 81.814 180.86 80.614 181.562 79.47 182.263 78.378 182.965 77.337 183.666 76.344 184.368 75.397 185.069 74.493 185.771 73.632 186.472 72.812 187.173 72.031 187.875 71.287 188.576 70.58 189.278 69.907 189.979 69.269 190.681 68.663 191.382 68.089 192.083 67.545 192.785 67.031 193.486 66.546 194.188 66.088 194.89 65.657 195.591 65.252 196.292 64.872 196.994 64.516 197.695 64.183 198.397 63.873 199.098 63.584 199.8 63.315 200.501 63.067 201.203 62.839 201.904 62.628 202.605 62.435 203.307 62.259 204.008 62.098 204.71 61.953 205.411 61.821 206.113 61.704 206.814 61.599 207.516 61.505 208.217 61.423 208.918 61.351 209.62 61.288 210.322 61.234 211.023 61.188 211.725 61.149 212.426 61.117 213.127 61.09 213.829 61.068 214.53 61.051 215.232 61.038 215.933 61.027 216.635 61.019 217.336 61.014 218.038 61.01 218.739 61.007 219.44 61.005 220.142 61.003 220.843 61.002 221.545 61.002 222.247 61.001 222.948 60.999 223.649 60.998 224.351 60.996 225.052 60.994 225.753 60.992 226.455 60.989 227.157 60.987 227.858 60.986 228.56 60.985 229.261 60.985 229.962 60.987 230.664 60.99 231.365 60.996 232.067 61.004 232.768 61.016 233.47 61.031 234.171 61.051 234.873 61.075 235.574 61.105 236.275 61.141 236.977 61.183 237.678 61.232 238.38 61.29 239.082 61.356 239.783 61.432 240.484 61.518 241.186 61.615 241.887 61.723 242.589 61.843 243.29 61.976 243.992 62.123 244.693 62.285 245.395 62.461 246.096 62.654 246.797 62.864 247.499 63.091 248.2 63.337 248.902 63.602 249.603 63.888 250.305 64.194 251.006 64.523 251.708 64.874 252.409 65.249 253.11 65.649 253.812 66.074 254.514 66.526 255.215 67.005 255.917 67.514 256.618 68.052 257.319 68.621 258.021 69.222 258.722 69.856 259.424 70.525 260.125 71.231 260.827 71.974 261.528 72.756 262.229 73.579 262.931 74.444 263.632 75.353 264.334 76.31 265.035 77.314 265.737 78.371 266.438 79.481 267.14 80.647 267.841 81.873 268.542 83.161 269.244 84.517 269.945 85.944 270.647 87.448 271.349 89.033 272.05 90.705 272.751 92.472 273.453 94.341 274.154 96.322 274.856 98.426 275.557 100.666 276.259 103.057 276.96 105.617 277.662 108.37 278.363 111.343 279.064 114.573 279.766 118.107 280.467 122.007 281.169 126.357 281.87 131.281 282.572 136.958 283.273 143.67 283.975 151.862 284.676 162.148 285.377 173.812 286.079 176.855 286.781 169.784 287.482 163.751 288.184 160.223 288.885 158.881 289.586 159.871 290.288 164.798 290.989 210.579 291.691 160.927 292.392 151.431 293.094 145.553 293.795 141.281 294.497 137.971 295.198 135.331 295.899 133.198 296.601 131.477 297.302 130.104 298.004 129.038 298.706 128.252 299.407 127.731 300.108 127.467 300.81 127.462 301.511 127.726 302.212 128.281 302.914 129.167 303.616 130.448 304.317 132.235 305.019 134.731 305.72 138.36 306.421 144.271 307.123 158.535 307.824 153.469 308.526 142.475 309.227 137.125 309.929 133.68 310.63 131.243 311.332 129.459 312.033 128.151 312.734 127.225 313.436 126.622 314.137 126.311 314.839 126.279 315.541 126.523 316.242 127.059 316.943 127.913 317.645 129.139 318.346 130.829 319.048 133.146 319.749 136.42 320.451 141.454 321.152 151.338 321.854 161.477 322.555 144.618 323.256 138.276 323.958 134.433 324.659 131.788 325.361 129.88 326.062 128.492 326.764 127.509 327.465 126.865 328.167 126.522 328.868 126.462 329.569 126.681 330.271 127.188 330.973 128.012 331.674 129.2 332.375 130.838 333.077 133.078 333.778 136.22 334.479 140.974 335.181 149.854 335.883 167.824 336.584 146.014 337.286 139.173 337.987 135.138 338.688 132.391 339.39 130.417 340.091 128.984 340.793 127.966 341.494 127.292 342.196 126.925 342.897 126.841 343.599 127.038 344.3 127.523 345.001 128.322 345.703 129.481 346.404 131.084 347.106 133.275 347.808 136.342 348.509 140.948 349.21 149.355 349.912 173.695 350.613 147.018 351.315 139.863 352.016 135.708 352.718 132.896 353.419 130.879 354.121 129.413 354.822 128.369 355.523 127.673 356.225 127.285 356.926 127.183 357.628 127.361 358.329 127.827 359.031 128.605 359.732 129.742 360.434 131.318 361.135 133.474 361.836 136.487 362.538 140.996 363.24 149.112 363.941 180.075 364.643 147.753 365.344 140.37 366.045 136.129 366.747 133.268 367.448 131.219 368.15 129.727 368.851 128.662 369.553 127.948 370.254 127.542 370.956 127.424 371.657 127.585 372.358 128.035 373.06 128.796 373.761 129.914 374.463 131.467 375.165 133.594 375.866 136.566 376.567 141 377.269 148.905 377.97 189.138 378.672 148.285 379.373 140.716 380.075 136.406 380.776 133.505 381.478 131.428 382.179 129.915 382.88 128.831 383.582 128.101 384.283 127.68 384.985 127.547 385.686 127.694 386.388 128.128 387.089 128.874 387.791 129.974 388.492 131.506 389.193 133.608 389.895 136.543 390.596 140.912 391.298 148.641 392 227.561"/><polyline fill="none" stroke="#000" stroke-width=".5" points="56 244.125 56 34.875"/><polyline fill="none" stroke="#000" stroke-width=".5" points="56 244.125 50.96 244.125"/><polyline fill="none" stroke="#000" stroke-width=".5" points="56 217.969 50.96 217.969"/><polyline fill="none" stroke="#000" stroke-width=".5" points="56 191.812 50.96 191.812"/><polyline fill="none" stroke="#000" stroke-width=".5" points="56 165.656 50.96 165.656"/><polyline fill="none" stroke="#000" stroke-width=".5" points="56 139.5 50.96 139.5"/><polyline fill="none" stroke="#000" stroke-width=".5" points="56 113.344 50.96 113.344"/><polyline fill="none" stroke="#000" stroke-width=".5" points="56 87.188 50.96 87.188"/><polyline fill="none" stroke="#000" stroke-width=".5" points="56 61.031 50.96 61.031"/><polyline fill="none" stroke="#000" stroke-width=".5" points="56 34.875 50.96 34.875"/><polyline fill="none" stroke="#000" stroke-width=".5" points="56 231.047 52.976 231.047"/><polyline fill="none" stroke="#000" stroke-width=".5" points="56 204.891 52.976 204.891"/><polyline fill="none" stroke="#000" stroke-width=".5" points="56 178.734 52.976 178.734"/><polyline fill="none" stroke="#000" stroke-width=".5" points="56 152.578 52.976 152.578"/><polyline fill="none" stroke="#000" stroke-width=".5" points="56 126.422 52.976 126.422"/><polyline fill="none" stroke="#000" stroke-width=".5" points="56 100.266 52.976 100.266"/><polyline fill="none" stroke="#000" stroke-width=".5" points="56 74.109 52.976 74.109"/><polyline fill="none" stroke="#000" stroke-width=".5" points="56 47.953 52.976 47.953"/><text fill="#000" style="stroke:none" x="25" y="249" font-family="SansSerif" font-size="10" font-style="normal" font-weight="normal" transform="rotate(-0, 25, 249)">-140</text><text fill="#000" style="stroke:none" x="25" y="223" font-family="SansSerif" font-size="10" font-style="normal" font-weight="normal" transform="rotate(-0, 25, 223)">-120</text><text fill="#000" style="stroke:none" x="25" y="197" font-family="SansSerif" font-size="10" font-style="normal" font-weight="normal" transform="rotate(-0, 25, 197)">-100</text><text fill="#000" style="stroke:none" x="31" y="171" font-family="SansSerif" font-size="10" font-style="normal" font-weight="normal" transform="rotate(-0, 31, 171)">-80</text><text fill="#000" style="stroke:none" x="31" y="145" font-family="SansSerif" font-size="10" font-style="normal" font-weight="normal" transform="rotate(-0, 31, 145)">-60</text><text fill="#000" style="stroke:none" x="31" y="118" font-family="SansSerif" font-size="10" font-style="normal" font-weight="normal" transform="rotate(-0, 31, 118)">-40</text><text fill="#000" style="stroke:none" x="31" y="92" font-family="SansSerif" font-size="10" font-style="normal" font-weight="normal" transform="rotate(-0, 31, 92)">-20</text><text fill="#000" style="stroke:none" x="42" y="66" font-family="SansSerif" font-size="10" font-style="normal" font-weight="normal" transform="rotate(-0, 42, 66)">0</text><text fill="#000" style="stroke:none" x="37" y="40" font-family="SansSerif" font-size="10" font-style="normal" font-weight="normal" transform="rotate(-0, 37, 40)">20</text><polyline fill="none" stroke="#bebebe" stroke-dasharray="4 4 4 4" stroke-width=".5" points="56 244.125 392 244.125 392 244.125"/><polyline fill="none" stroke="#bebebe" stroke-dasharray="4 4 4 4" stroke-width=".5" points="56 217.969 392 217.969 392 217.969"/><polyline fill="none" stroke="#bebebe" stroke-dasharray="4 4 4 4" stroke-width=".5" points="56 191.812 392 191.812 392 191.812"/><polyline fill="none" stroke="#bebebe" stroke-dasharray="4 4 4 4" stroke-width=".5" points="56 165.656 392 165.656 392 165.656"/><polyline fill="none" stroke="#bebebe" stroke-dasharray="4 4 4 4" stroke-width=".5" points="56 139.5 392 139.5 392 139.5"/><polyline fill="none" stroke="#bebebe" stroke-dasharray="4 4 4 4" stroke-width=".5" points="56 113.344 392 113.344 392 113.344"/><polyline fill="none" stroke="#bebebe" stroke-dasharray="4 4 4 4" stroke-width=".5" points="56 87.188 392 87.188 392 87.188"/><polyline fill="none" stroke="#bebebe" stroke-dasharray="4 4 4 4" stroke-width=".5" points="56 61.031 392 61.031 392 61.031"/><polyline fill="none" stroke="#bebebe" stroke-dasharray="4 4 4 4" stroke-width=".5" points="56 34.875 392 34.875 392 34.875"/><polyline fill="none" stroke="#000" stroke-width=".5" points="56 244.125 392 244.125"/><polyline fill="none" stroke="#000" stroke-width=".5" points="56 244.125 56 247.26"/><polyline fill="none" stroke="#000" stroke-width=".5" points="89.6 244.125 89.6 247.26"/><polyline fill="none" stroke="#000" stroke-width=".5" points="123.2 244.125 123.2 247.26"/><polyline fill="none" stroke="#000" stroke-width=".5" points="156.8 244.125 156.8 247.26"/><polyline fill="none" stroke="#000" stroke-width=".5" points="190.4 244.125 190.4 247.26"/><polyline fill="none" stroke="#000" stroke-width=".5" points="224 244.125 224 247.26"/><polyline fill="none" stroke="#000" stroke-width=".5" points="257.6 244.125 257.6 247.26"/><polyline fill="none" stroke="#000" stroke-width=".5" points="291.2 244.125 291.2 247.26"/><polyline fill="none" stroke="#000" stroke-width=".5" points="324.8 244.125 324.8 247.26"/><polyline fill="none" stroke="#000" stroke-width=".5" points="358.4 244.125 358.4 247.26"/><polyline fill="none" stroke="#000" stroke-width=".5" points="392 244.125 392 247.26"/><text fill="#000" style="stroke:none" x="48" y="258" font-family="SansSerif" font-size="10" font-style="normal" font-weight="normal" transform="rotate(-0, 48, 258)">0.0</text><text fill="#000" style="stroke:none" x="82" y="258" font-family="SansSerif" font-size="10" font-style="normal" font-weight="normal" transform="rotate(-0, 82, 258)">0.5</text><text fill="#000" style="stroke:none" x="115" y="258" font-family="SansSerif" font-size="10" font-style="normal" font-weight="normal" transform="rotate(-0, 115, 258)">1.0</text><text fill="#000" style="stroke:none" x="149" y="258" font-family="SansSerif" font-size="10" font-style="normal" font-weight="normal" transform="rotate(-0, 149, 258)">1.5</text><text fill="#000" style="stroke:none" x="182" y="258" font-family="SansSerif" font-size="10" font-style="normal" font-weight="normal" transform="rotate(-0, 182, 258)">2.0</text><text fill="#000" style="stroke:none" x="216" y="258" font-family="SansSerif" font-size="10" font-style="normal" font-weight="normal" transform="rotate(-0, 216, 258)">2.5</text><text fill="#000" style="stroke:none" x="250" y="258" font-family="SansSerif" font-size="10" font-style="normal" font-weight="normal" transform="rotate(-0, 250, 258)">3.0</text><text fill="#000" style="stroke:none" x="283" y="258" font-family="SansSerif" font-size="10" font-style="normal" font-weight="normal" transform="rotate(-0, 283, 258)">3.5</text><text fill="#000" style="stroke:none" x="316" y="258" font-family="SansSerif" font-size="10" font-style="normal" font-weight="normal" transform="rotate(-0, 316, 258)">4.0</text><text fill="#000" style="stroke:none" x="350" y="258" font-family="SansSerif" font-size="10" font-style="normal" font-weight="normal" transform="rotate(-0, 350, 258)">4.5</text><text fill="#000" style="stroke:none" x="384" y="258" font-family="SansSerif" font-size="10" font-style="normal" font-weight="normal" transform="rotate(-0, 384, 258)">5.0</text><polyline fill="none" stroke="#bebebe" stroke-dasharray="4 4 4 4" stroke-width=".5" points="56 244.125 56 34.875 56 34.875"/><polyline fill="none" stroke="#bebebe" stroke-dasharray="4 4 4 4" stroke-width=".5" points="89.6 244.125 89.6 34.875 89.6 34.875"/><polyline fill="none" stroke="#bebebe" stroke-dasharray="4 4 4 4" stroke-width=".5" points="123.2 244.125 123.2 34.875 123.2 34.875"/><polyline fill="none" stroke="#bebebe" stroke-dasharray="4 4 4 4" stroke-width=".5" points="156.8 244.125 156.8 34.875 156.8 34.875"/><polyline fill="none" stroke="#bebebe" stroke-dasharray="4 4 4 4" stroke-width=".5" points="190.4 244.125 190.4 34.875 190.4 34.875"/><polyline fill="none" stroke="#bebebe" stroke-dasharray="4 4 4 4" stroke-width=".5" points="224 244.125 224 34.875 224 34.875"/><polyline fill="none" stroke="#bebebe" stroke-dasharray="4 4 4 4" stroke-width=".5" points="257.6 244.125 257.6 34.875 257.6 34.875"/><polyline fill="none" stroke="#bebebe" stroke-dasharray="4 4 4 4" stroke-width=".5" points="291.2 244.125 291.2 34.875 291.2 34.875"/><polyline fill="none" stroke="#bebebe" stroke-dasharray="4 4 4 4" stroke-width=".5" points="324.8 244.125 324.8 34.875 324.8 34.875"/><polyline fill="none" stroke="#bebebe" stroke-dasharray="4 4 4 4" stroke-width=".5" points="358.4 244.125 358.4 34.875 358.4 34.875"/><polyline fill="none" stroke="#bebebe" stroke-dasharray="4 4 4 4" stroke-width=".5" points="392 244.125 392 34.875 392 34.875"/><text fill="#000" style="stroke:none" x="185" y="273" font-family="SansSerif" font-size="10" font-style="normal" font-weight="normal" transform="rotate(0, 185, 273)">frequency (Hz)</text><text fill="#000" style="stroke:none" x="16" y="179" font-family="SansSerif" font-size="10" font-style="normal" font-weight="normal" transform="rotate(270, 16, 179)">Magnitude (dB)</text></g></svg>