<svg xmlns="http://www.w3.org/2000/svg" xmlns:svg="http://www.w3.org/2000/svg" id="svg2" width="44" height="80" version="1.0"><g id="layer1" transform="translate(-28,15.075736)" style="fill:#c00"><path id="path3059" d="M 50,45 V 63" style="stroke:#c00;stroke-width:1.69705629;stroke-linecap:butt;stroke-linejoin:miter"/><path id="path3061" d="m 60.128,6.3781 0,-19.506" style="stroke:#c00;stroke-width:1.74340975;stroke-linecap:butt;stroke-linejoin:miter"/><path id="path3944" d="m 39.872,7.1283 0,-20.257" style="stroke:#c00;stroke-width:1.74340975;stroke-linecap:butt;stroke-linejoin:miter"/><path id="path2884" d="M 70,5 68.571,5 31.429,5 30,5 30,6.4286 30,25.476 c 0,11.268 9,20 20,20 11,0 20,-8.7321 20,-20 L 70,6.428 70,5 z m -2.8571,2.8571 0,17.58916 0,0.02976 c 0,9.7607 -7.64,16.667 -17.143,16.667 -9.5029,0 -17.143,-7.3822 -17.143,-17.143 l 0,-17.143 34.286,0 0,8e-5 z" style="text-indent:0;text-align:start;text-transform:none;direction:ltr"/></g></svg>