<svg xmlns="http://www.w3.org/2000/svg" xmlns:xlink="http://www.w3.org/1999/xlink" id="svg11300" width="41.091" height="41.089" version="1.1"><title id="title3289">base scilan</title><defs id="defs3"><clipPath id="clipPath5612"><rect id="rect5614" width="80.071" height="39.342" x="-186.1" y="17.807" fill="#00000a" rx="11.749" ry="11.749"/></clipPath><radialGradient id="radialGradient31624" cx="24.446" cy="35.878" r="20.531" gradientTransform="matrix(2.928002,0,0,2.928002,-99.971948,-61.975014)" gradientUnits="userSpaceOnUse"><stop id="stop11522" offset="0" stop-color="#FFF"/><stop id="stop11524" offset="1" stop-color="#dcdcdc"/></radialGradient></defs><g id="layer1" transform="translate(1.2072443e-8,-6.910638)"><g id="layer1-0" transform="matrix(0,0.68137179,-0.68137179,0,39.302853,7.826163)"><g id="g9544" transform="translate(-2.0023665,2.2530854)"><g id="g31613" transform="translate(5.4543789,7.7672827)"><g id="g5646" stroke-dashoffset="0" stroke-linecap="butt" stroke-linejoin="bevel" stroke-miterlimit="10" transform="translate(0.34662852,-10.907711)"><rect id="rect11518" style="color:#000;stroke-dasharray:none" width="58.796" height="58.796" x="-57.793" y="-4.409" fill="url(#radialGradient31624)" fill-rule="evenodd" stroke="#2e3436" stroke-width="1.468" rx="8.006" ry="8.006" transform="matrix(0,-1,1,0,0,0)"/><rect id="rect11518-2" style="color:#000;stroke-dasharray:none" width="58.796" height="58.796" x="-175.34" y="-11.301" fill="#73d216" fill-rule="evenodd" stroke="#4e9a06" stroke-width="1.468" clip-path="url(#clipPath5612)" rx="8.006" ry="8.006" transform="matrix(0,-0.9977293,1.1929217,0,-2.2970371,-117.17148)"/><rect id="rect11528" style="color:#000;stroke-dasharray:none" width="55.325" height="55.325" x="-56.057" y="-3.019" fill="none" stroke="#FFF" stroke-width="1.468" rx="6.227" ry="6.227" transform="matrix(0,-1,1,0,0,0)"/></g></g></g></g></g></svg>