<svg xmlns="http://www.w3.org/2000/svg" id="svg2855" width="16.614" height="28.462" version="1.1"><g id="layer1" transform="translate(-366.69289,-518.13104)"><g id="layer1-0" transform="matrix(0,0.68137179,-0.68137179,0,392.99674,515.6967)"><g id="g9544" transform="translate(2.4634854,6.2067135)"><g id="g9534" stroke="#2e3436" stroke-miterlimit="4" transform="translate(-1.3123521,4.360673)"><path id="path9523" fill="#eeeeec" stroke-linejoin="round" style="stroke-dasharray:none" stroke-linecap="round" stroke-width="2" d="m-37.907-2.0708a5.5503,5.5503,0,1,1,-11.101,0,5.5503,5.5503,0,1,1,11.101,0z" transform="matrix(0,-0.9977947,0.9977947,0,11.023636,-27.516685)"/><rect id="rect9525" stroke-linejoin="round" style="stroke-dasharray:none" width="22.388" height="6.009" x="-27.039" y="18.855" fill="#eeeeec" stroke-linecap="round" stroke-width="1.996" transform="matrix(0,-1,1,0,0,0)"/><path id="path9531" fill="none" stroke-linejoin="miter" style="stroke-dasharray:none" stroke-linecap="butt" stroke-width="1.996" d="M25.74,17.271,29.303,13.707,32.867,17.271,36.43,13.707l3.5636,3.5635s2.9853-3.5213,3.202-4.3607"/></g></g></g></g></svg>