<svg xmlns="http://www.w3.org/2000/svg" id="svg2855" width="33.259" height="33.259" version="1.1"><g id="layer1" transform="translate(-358.3703,-515.73248)"><g id="g31086" stroke-linecap="round" stroke-miterlimit="4" transform="matrix(0,0.68137177,-0.68137177,0,390.03482,516.42453)"><path id="path35549-4" fill="none" stroke="#C00" stroke-linejoin="round" style="stroke-dasharray:none" stroke-dashoffset="0" stroke-width=".924" d="m31.161,16.911a14.911,14.911,0,1,1,-29.821,0,14.911,14.911,0,1,1,29.821,0z" transform="matrix(1.5876104,0,0,1.5876104,-2.4081283,-4.7821171)"/><path id="path34778" stroke-linejoin="round" style="stroke-dasharray:none" fill="#000" fill-rule="evenodd" stroke="#000" stroke-dashoffset="0" stroke-width=".708" d="m16.406,17.281a1.2188,1.2188,0,1,1,-2.4375,0,1.2188,1.2188,0,1,1,2.4375,0z" transform="matrix(2.073295,0,0,2.073295,-7.310224,-13.13682)"/><path id="path35559" fill="none" stroke-linejoin="miter" style="stroke-dasharray:none" stroke="#000" stroke-width="2.935" d="M22.177,20.718,13.156,13.14"/><path id="path35561" fill="none" stroke-linejoin="miter" style="stroke-dasharray:none" stroke="#000" stroke-width="2.935" d="m19.409,29.777,2.96-4.4933"/></g></g></svg>