<svg xmlns="http://www.w3.org/2000/svg" xmlns:xlink="http://www.w3.org/1999/xlink" id="svg2" width="35" height="32" version="1.0"><defs id="defs4"><linearGradient id="linearGradient2983" x1="34.893" x2="45.919" y1="36.423" y2="48.548" gradientTransform="matrix(0.3358898,0,0,0.3358898,-29.952657,5.204695)" gradientUnits="userSpaceOnUse"><stop id="stop1324" offset="0" stop-color="#729fcf"/><stop id="stop1326" offset="1" stop-color="#5187d6"/></linearGradient><linearGradient id="linearGradient2985" x1="16.875" x2="27.901" y1="22.852" y2="34.977" gradientTransform="matrix(0.3358898,0,0,0.3358898,-23.900645,9.763119)" gradientUnits="userSpaceOnUse"><stop id="stop7918" offset="0" stop-color="#FFF"/><stop id="stop7920" offset="1" stop-color="#FFF" stop-opacity=".34"/></linearGradient></defs><g id="layer1" stroke-linecap="butt"><path id="path17478" fill="none" stroke-linejoin="miter" style="stroke-dasharray:none" stroke="#000" stroke-miterlimit="4" stroke-width="1.5" d="M16,5.0011v21.999"/><path id="path17480" fill="none" stroke-linejoin="miter" style="stroke-dasharray:none" stroke="#000" stroke-miterlimit="4" stroke-width="2.129" d="m19.843,20.681,0-9.3617"/><path id="path17482" fill="none" stroke="#000" stroke-linejoin="miter" stroke-width="1" d="M16.113,16,0.0000169,16"/><path id="path17484" fill="none" stroke="#000" stroke-linejoin="miter" stroke-width="1" d="M18.981,16h16.019"/><g id="g10841" stroke-miterlimit="4" transform="matrix(0.44813805,0,0,0.44813805,19.10033,-0.87156096)"><path id="text1314" fill="#75a1d0" stroke-linejoin="miter" style="stroke-dasharray:none;text-align:start" stroke="#3465a4" stroke-width="1" d="m-14.659,22.373,0-3.0321,3.3517-0.0135,0-2.3497-3.3487,0-0.003-3.3455-2.3567,0.0037,0.002,3.3358-3.3554,0.02474-0.01199,2.3407,3.3704-0.0097,0.002,3.0366,2.35,0.009z"/><path id="path7076" fill="url(#linearGradient2983)" stroke="url(#linearGradient2985)" stroke-linejoin="round" stroke-width=".336" d="M-15,22.034-15,19h3.3598l-0.002-1.6877h-3.3545v-3.3572l-1.6777,0.006,0.003,3.3512-3.3677,0.006-0.009,1.6704,3.3805,0.003-0.005,3.0322,1.6724,0.0105z" opacity=".409" style="stroke-dasharray:none;text-align:start"/></g></g></svg>