<svg xmlns="http://www.w3.org/2000/svg" id="svg2873" width="40" height="40" version="1.1"><defs id="defs2875"><clipPath id="clipPath37222"><rect id="rect37224" stroke-linejoin="round" style="stroke-dasharray:none" width="29.575" height="8.763" x="-67.328" y="9.014" fill="#73d216" stroke="#8ae234" stroke-linecap="round" stroke-miterlimit="10" stroke-width=".967"/></clipPath><clipPath id="clipPath37216"><rect id="rect37218" stroke-linejoin="round" style="stroke-dasharray:none" width="41.562" height="8.95" x="-79.131" y="8.358" fill="#73d216" stroke="#8ae234" stroke-linecap="round" stroke-miterlimit="10" stroke-width="1"/></clipPath></defs><g id="layer1" transform="translate(0,-1012.3622)"><g id="g37398" fill="none" stroke="#73d216" stroke-linecap="round" stroke-linejoin="round" transform="matrix(0,0.68137179,-0.68137179,0,33.767664,1008.7739)"><path id="path36671" style="stroke-dasharray:none" stroke-miterlimit="10" stroke-width="1.044" d="m-57.511,49.358a12.872,7.1445,0,1,1,-25.744,0,12.872,7.1445,0,1,1,25.744,0z" transform="matrix(0,-1.3706031,1.4422526,0,-36.442489,-76.260669)"/><path id="path36700" style="stroke-dasharray:none" stroke-miterlimit="10" stroke-width=".885" d="m-41.922,18.064a10.451,6.1998,0,1,1,-20.902,0,10.451,6.1998,0,1,1,20.902,0z" clip-path="url(#clipPath37222)" transform="matrix(0,-1.6759951,1.6416401,0,26.234339,-67.572024)"/><path id="path36702" style="stroke-dasharray:none" stroke-miterlimit="10" stroke-width=".915" d="m-47.118,7.908a11.219,6.1998,0,1,1,-22.437,0,11.219,6.1998,0,1,1,22.437,0z" clip-path="url(#clipPath37216)" transform="matrix(0,-1.563745,1.646025,0,0.06331757,-71.01866)"/><path id="path37226" stroke-width="1.468" d="m13.995,37.71,0.17262-35.009,0,0"/><path id="path37396" stroke-width="1.468" d="m55.07,37.537,0.17331-34.663,0,0"/></g></g></svg>