<svg xmlns="http://www.w3.org/2000/svg" xmlns:xlink="http://www.w3.org/1999/xlink" id="svg3643" width="43.69" height="43.69" version="1.1"><defs id="defs3647"><radialGradient id="XMLID_52_" cx="165.06" cy="23.333" r="7.285" gradientTransform="matrix(1,0,0,1.0103,0,-0.159801)" gradientUnits="userSpaceOnUse"><stop id="stop812" offset="0" stop-color="#ef3535"/><stop id="stop2239" offset="0" stop-color="#c91a1a"/><stop id="stop814" offset="1" stop-color="#ff4c4c"/></radialGradient><radialGradient id="radialGradient7366" cx="8.747" cy="6.828" r="29.89" gradientUnits="userSpaceOnUse" xlink:href="#XMLID_52_"/><radialGradient id="radialGradient7368" cx="11.902" cy="10.045" r="29.293" gradientUnits="userSpaceOnUse"><stop id="stop2147" offset="0" stop-color="#fffffd"/><stop id="stop2149" offset="1" stop-color="#cbcbc9"/></radialGradient><linearGradient id="linearGradient7370" x1="6.342" x2="22.218" y1="7.789" y2="25.884" gradientUnits="userSpaceOnUse"><stop id="stop10655" offset="0" stop-color="#f3f4ff"/><stop id="stop10657" offset="1" stop-color="#9193af"/></linearGradient><radialGradient id="radialGradient7372" cx="11.329" cy="10.584" r="15.532" gradientUnits="userSpaceOnUse" xlink:href="#XMLID_52_"/></defs><g id="layer1" transform="translate(2.1701242,-21.184893)"><g id="g7350" transform="translate(-4.5,-3.5000001)"><g id="g4268" transform="translate(0.34319025,23.976452)"><path id="path27786" stroke-linejoin="round" style="stroke-dasharray:none" fill="url(#radialGradient7366)" fill-rule="evenodd" stroke="#a40000" stroke-dashoffset="0" stroke-linecap="round" stroke-miterlimit="4" stroke-width=".699" d="m31.161,16.911a14.911,14.911,0,1,1,-29.821,0,14.911,14.911,0,1,1,29.821,0z" transform="matrix(1.431529,0,0,1.431529,0.569459,-1.654618)"/><path id="path35549" fill="url(#radialGradient7368)" fill-rule="evenodd" stroke="url(#linearGradient7370)" stroke-dashoffset="0" stroke-linecap="round" stroke-linejoin="round" stroke-miterlimit="4" stroke-width=".711" d="m31.161,16.911a14.911,14.911,0,1,1,-29.821,0,14.911,14.911,0,1,1,29.821,0z" transform="matrix(1.163838,0,0,1.163838,4.824801,2.777556)"/><path id="path10651" fill="none" stroke="url(#radialGradient7372)" stroke-dashoffset="0" stroke-linecap="round" stroke-linejoin="round" stroke-miterlimit="4" stroke-width=".737" d="m31.161,16.911a14.911,14.911,0,1,1,-29.821,0,14.911,14.911,0,1,1,29.821,0z" transform="matrix(1.357654,0,0,1.357654,1.769896,-0.493735)"/><g id="g4258" stroke="#2e3436" stroke-linecap="round" stroke-width="1" transform="translate(-0.49003984,-0.32669323)"><path id="path35559" stroke-linejoin="miter" style="stroke-dasharray:none" fill="none" stroke-miterlimit="4" d="m24.495,22.583,7.5777-9.0209"/><path id="path4256" fill="#2e3436" stroke-linejoin="round" style="stroke-dasharray:none" stroke-miterlimit="10" d="m-78.668,39.378-5.2437-3.0274-5.2437-3.0274,5.2437-3.0274,5.2437-3.0274,0,6.0549,0,6.0549z" transform="matrix(0.42354759,0.05292161,-0.05292161,0.42354759,68.775627,3.4525942)"/></g><text id="text4262" x="19.803" y="36.025" fill="#000" font-family="Bitstream Vera Sans" font-size="10.41" font-style="normal" font-weight="normal" xml:space="preserve"><tspan id="tspan4264" x="19.803" y="36.025" font-weight="bold">A</tspan></text></g><path id="path4266" fill="none" stroke="#000" stroke-linecap="round" stroke-linejoin="round" stroke-width="1" d="m23.93,29.705c0,7.8406,0.16334,7.8406,0.16334,7.8406"/></g><path id="path34778" stroke-linejoin="round" style="stroke-dasharray:none" fill="#f3f3f3" fill-rule="evenodd" stroke="#000" stroke-dashoffset="0" stroke-linecap="round" stroke-miterlimit="4" stroke-width=".482" d="m16.406,17.281a1.2188,1.2188,0,1,1,-2.4375,0,1.2188,1.2188,0,1,1,2.4375,0z" transform="matrix(2.073295,0,0,2.073295,-11.813172,7.2008838)"/></g></svg>