<svg xmlns="http://www.w3.org/2000/svg" xmlns:svg="http://www.w3.org/2000/svg" id="svg2" width="50" height="50" version="1.0"><g id="layer1" style="fill:none;stroke:#000;stroke-width:1px;stroke-linecap:butt;stroke-linejoin:miter"><path id="path3124" d="M 5.5,5 16,5 c 0,0 5,2.6429774 5,5 0,2.357023 -5,5 -5,5 0,0 5,2.642977 5,5 0,2.357023 -5,5 -5,5 0,0 5,2.642977 5,5 0,2.357023 -5,5 -5,5 0,0 5,2.642977 5,5 0,2.357023 -5,5 -5,5 L 5.5,45"/><path id="path3126" d="M 43,5 33,5 c 0,0 -5,2.6429774 -5,5 0,2.357023 5,5 5,5 0,0 -5,2.642977 -5,5 0,2.357023 5,5 5,5 0,0 -5,2.642977 -5,5 0,2.357023 5,5 5,5 0,0 -5,2.642977 -5,5 0,2.357023 5,5 5,5 l 10,0"/></g></svg>