<svg xmlns="http://www.w3.org/2000/svg" xmlns:xlink="http://www.w3.org/1999/xlink" id="svg11300" width="48" height="48" version="1.1"><title id="title3289">base scilan</title><metadata id="metadata4"/><g id="layer1"><g id="layer1-0" transform="matrix(0,0.68137179,-0.68137179,0,39.302853,7.826163)"><g id="g9544" transform="translate(-2.0023665,2.2530854)"><g id="g9570" transform="translate(0.34662852,-1.7289484)"><g id="g28489" transform="translate(2.3098495,0.12996954)"><g id="g5362"><g id="layer1-8" transform="matrix(0,-1.4676275,1.4676275,0,-37.823485,137.74736)"><g id="g5857" stroke="#000" transform="translate(-0.49999954,-9.6375814e-8)"><path id="path7324" fill="none" stroke-linecap="round" stroke-linejoin="miter" stroke-width="1" d="m25,37-9-14,0,0" transform="translate(55.500003,17.5)"/><path id="path6318" stroke-linejoin="miter" style="stroke-dasharray:none" fill="#000" stroke-linecap="square" stroke-miterlimit="4" stroke-width="1.516" d="m-22-16,2.5981,4.5,2.5981,4.5h-5.196l-5.1962-1E-7,2.598-4.5,2.598-4.5z" transform="matrix(-0.57976918,-0.31487816,0.31487816,-0.57976918,67.39727,36.477133)"/><path id="path6838" fill="none" stroke-linecap="butt" stroke-linejoin="miter" stroke-width=".901" d="m93.5,54.771h-13"/><path id="path6840" fill="none" stroke-linecap="butt" stroke-linejoin="miter" stroke-width=".901" d="m93.5,54.771h-13"/><path id="path6844" fill="none" stroke-linecap="butt" stroke-linejoin="miter" stroke-width=".901" d="m93.5,28.229h-13"/><path id="path7318" fill="none" stroke-linecap="butt" stroke-linejoin="miter" stroke-width="1" d="m64.5,40.5h6"/><path id="path7320" fill="none" stroke-linecap="butt" stroke-linejoin="miter" stroke-width="1.348" d="m70.5,30.5,0,20"/><path id="path7844" fill="none" stroke-linejoin="round" style="stroke-dasharray:none" stroke-linecap="round" stroke-miterlimit="4" stroke-width="1" d="m71.5,40.5,9-12,0,0,0,0"/></g></g></g></g></g></g></g></g></svg>