<svg xmlns="http://www.w3.org/2000/svg" xmlns:svg="http://www.w3.org/2000/svg" xmlns:xlink="http://www.w3.org/1999/xlink" id="svg11300" width="80" height="79.583" x="0" y="0" enable-background="new 0 0 80 79.583" version="1.1" viewBox="0 0 80 79.583" xml:space="preserve"><g id="layer1"><radialGradient id="rect11518_1_" cx="212.975" cy="-226.672" r="39.481" gradientTransform="matrix(1.9951 0 0 -1.8554 -384.1325 -356.1771)" gradientUnits="userSpaceOnUse"><stop offset="0" style="stop-color:#fbfbfb"/><stop offset="1" style="stop-color:#dcdcdc"/></radialGradient><path id="rect11518" fill="url(#rect11518_1_)" stroke="#9B9B9B" stroke-linejoin="bevel" stroke-miterlimit="10" d="M12.747,1.417 H68.8c5.796,0,10.489,4.696,10.489,10.489v55.77c0,5.793-4.693,10.49-10.489,10.49H12.747c-5.792,0-10.488-4.697-10.488-10.49 v-55.77C2.259,6.113,6.955,1.417,12.747,1.417z"/><path id="rect11528" fill="none" stroke="#FFF" stroke-linejoin="bevel" stroke-miterlimit="10" d="M12.691,3.404h56.167 c4.504,0,8.158,3.653,8.158,8.158v56.331c0,4.506-3.654,8.156-8.158,8.156H12.691c-4.506,0-8.158-3.65-8.158-8.156V11.562 C4.533,7.056,8.185,3.404,12.691,3.404z"/><linearGradient id="rect11592_1_" x1="627.258" x2="627.258" y1="-757.725" y2="-832.617" gradientTransform="matrix(0.9843 0 0 -0.9579 -576.6366 -727.7244)" gradientUnits="userSpaceOnUse"><stop offset="0" style="stop-color:#fbfbfb"/><stop offset="1" style="stop-color:#dcdcdc"/></linearGradient><linearGradient id="rect11592_2_" x1="-194.807" x2="-183.101" y1="440.248" y2="410.248" gradientUnits="userSpaceOnUse"><stop offset="0" style="stop-color:#fff"/><stop offset="1" style="stop-color:#d1d1d1"/></linearGradient><path id="rect11592" fill="url(#rect11592_1_)" stroke="url(#rect11592_2_)" stroke-linejoin="bevel" stroke-miterlimit="10" d="M21.871,8.925h37.807c2.441,0,4.418,1.978,4.418,4.419v54.048c0,2.44-1.977,4.421-4.418,4.421H21.871 c-2.44,0-4.418-1.98-4.418-4.421V13.344C17.453,10.903,19.431,8.925,21.871,8.925z"/><radialGradient id="rect7580_1_" cx="143.764" cy="-216.568" r="11.587" gradientTransform="matrix(2.4079 0 0 -1.8611 -305.3967 -343.9993)" gradientUnits="userSpaceOnUse"><stop offset="0" style="stop-color:#525252"/><stop offset="1" style="stop-color:#000"/></radialGradient><linearGradient id="rect7580_2_" x1="-183.302" x2="-190.454" y1="415.748" y2="428.128" gradientUnits="userSpaceOnUse"><stop offset="0" style="stop-color:#fff"/><stop offset="1" style="stop-color:#d1d1d1"/></linearGradient><path id="rect7580" fill="url(#rect7580_1_)" stroke="url(#rect7580_2_)" stroke-linejoin="bevel" stroke-miterlimit="10" d="M32.526,21.122h17.175c1.689,0,3.061,1.37,3.061,3.06v34.072c0,1.688-1.369,3.061-3.061,3.061H32.526 c-1.689,0-3.059-1.369-3.059-3.061V24.182C29.467,22.492,30.837,21.122,32.526,21.122z"/><path id="rect7626" fill="#8A8A8A" stroke="#595959" stroke-linejoin="bevel" stroke-miterlimit="10" d="M34.394,50.64h13.17 c1.127,0,2.039,0.916,2.039,2.041v4.22c0,1.127-0.912,2.039-2.039,2.039h-13.17c-1.127,0-2.04-0.912-2.04-2.039v-4.22 C32.354,51.556,33.267,50.64,34.394,50.64z"/><linearGradient id="rect7594_1_" x1="569.384" x2="569.384" y1="-1048.926" y2="-1004.498" gradientTransform="matrix(1.0592 0 0 -0.8081 -562.1112 -792.4204)" gradientUnits="userSpaceOnUse"><stop offset="0" style="stop-color:#fff"/><stop offset=".46" style="stop-color:#e3e3e3"/><stop offset=".62" style="stop-color:#dadada;stop-opacity:.6706"/><stop offset="1" style="stop-color:#d1d1d1;stop-opacity:.3429"/></linearGradient><radialGradient id="rect7594_2_" cx="-190.416" cy="419.585" r="4.478" gradientUnits="userSpaceOnUse"><stop offset="0" style="stop-color:#fff"/><stop offset=".216" style="stop-color:#fff"/><stop offset=".5" style="stop-color:#838383"/><stop offset="1" style="stop-color:#838383;stop-opacity:0"/></radialGradient><path id="rect7594" fill="url(#rect7594_1_)" stroke="url(#rect7594_2_)" stroke-linejoin="bevel" stroke-miterlimit="10" d="M34.111,23.747H47.85c0.938,0,1.698,0.761,1.698,1.699v27.006c0,0.938-0.761,1.698-1.698,1.698H34.111 c-0.939,0-1.699-0.761-1.699-1.698V25.446C32.412,24.508,33.172,23.747,34.111,23.747z"/></g><text font-family="'MyriadPro-Regular'" font-size="21.151" transform="matrix(1 0 0 1 51.543 21.1235)">on</text></svg>