<svg xmlns="http://www.w3.org/2000/svg" xmlns:xlink="http://www.w3.org/1999/xlink" width="612" height="86" viewBox="0 0 612 86"><title>Figure 0</title><desc>Creator: GL2PS 1.3.2, (C) 1999-2006 Christophe Geuzaine (geuz@geuz.org) For: Scilab CreationDate: Thu Feb 19 14:13:08 2009</desc><g><polygon fill="#fff" points="0 86 612 86 612 0"/><polygon fill="#fff" points="0 86 612 0 0 0"/><polygon fill="#fff" points="0 86 0 0 0 0"/><polygon fill="#fff" points="0 86 612 86 612 86"/><polygon fill="#fff" points="0 86 0 0 0 86"/><polygon fill="#fff" points="0 86 612 86 0 86"/><polygon fill="#000" points="38.686 27.034 38 27 38 34"/><polygon fill="#000" points="38.686 27.034 38 34 38 34"/><polygon fill="#000" points="39.366 27.134 38.686 27.034 38 34"/><polygon fill="#000" points="39.366 27.134 38 34 38 34"/><polygon fill="#000" points="40.032 27.301 39.366 27.134 38 34"/><polygon fill="#000" points="40.032 27.301 38 34 38 34"/><polygon fill="#000" points="40.679 27.533 40.032 27.301 38 34"/><polygon fill="#000" points="40.679 27.533 38 34 38 34"/><polygon fill="#000" points="41.3 27.827 40.679 27.533 38 34"/><polygon fill="#000" points="41.3 27.827 38 34 38 34"/><polygon fill="#000" points="41.889 28.18 41.3 27.827 38 34"/><polygon fill="#000" points="41.889 28.18 38 34 38 34"/><polygon fill="#000" points="42.441 28.589 41.889 28.18 38 34"/><polygon fill="#000" points="42.441 28.589 38 34 38 34"/><polygon fill="#000" points="42.95 29.05 42.441 28.589 38 34"/><polygon fill="#000" points="42.95 29.05 38 34 38 34"/><polygon fill="#000" points="43.411 29.559 42.95 29.05 38 34"/><polygon fill="#000" points="43.411 29.559 38 34 38 34"/><polygon fill="#000" points="43.82 30.111 43.411 29.559 38 34"/><polygon fill="#000" points="43.82 30.111 38 34 38 34"/><polygon fill="#000" points="44.173 30.7 43.82 30.111 38 34"/><polygon fill="#000" points="44.173 30.7 38 34 38 34"/><polygon fill="#000" points="44.467 31.321 44.173 30.7 38 34"/><polygon fill="#000" points="44.467 31.321 38 34 38 34"/><polygon fill="#000" points="44.699 31.968 44.467 31.321 38 34"/><polygon fill="#000" points="44.699 31.968 38 34 38 34"/><polygon fill="#000" points="44.866 32.634 44.699 31.968 38 34"/><polygon fill="#000" points="44.866 32.634 38 34 38 34"/><polygon fill="#000" points="44.966 33.314 44.866 32.634 38 34"/><polygon fill="#000" points="44.966 33.314 38 34 38 34"/><polygon fill="#000" points="45 34 44.966 33.314 38 34"/><polygon fill="#000" points="45 34 38 34 38 34"/><polygon fill="#000" points="44.966 34.686 45 34 38 34"/><polygon fill="#000" points="44.966 34.686 38 34 38 34"/><polygon fill="#000" points="44.866 35.366 44.966 34.686 38 34"/><polygon fill="#000" points="44.866 35.366 38 34 38 34"/><polygon fill="#000" points="44.699 36.032 44.866 35.366 38 34"/><polygon fill="#000" points="44.699 36.032 38 34 38 34"/><polygon fill="#000" points="44.467 36.679 44.699 36.032 38 34"/><polygon fill="#000" points="44.467 36.679 38 34 38 34"/><polygon fill="#000" points="44.173 37.3 44.467 36.679 38 34"/><polygon fill="#000" points="44.173 37.3 38 34 38 34"/><polygon fill="#000" points="43.82 37.889 44.173 37.3 38 34"/><polygon fill="#000" points="43.82 37.889 38 34 38 34"/><polygon fill="#000" points="43.411 38.441 43.82 37.889 38 34"/><polygon fill="#000" points="43.411 38.441 38 34 38 34"/><polygon fill="#000" points="42.95 38.95 43.411 38.441 38 34"/><polygon fill="#000" points="42.95 38.95 38 34 38 34"/><polygon fill="#000" points="42.441 39.411 42.95 38.95 38 34"/><polygon fill="#000" points="42.441 39.411 38 34 38 34"/><polygon fill="#000" points="41.889 39.82 42.441 39.411 38 34"/><polygon fill="#000" points="41.889 39.82 38 34 38 34"/><polygon fill="#000" points="41.3 40.173 41.889 39.82 38 34"/><polygon fill="#000" points="41.3 40.173 38 34 38 34"/><polygon fill="#000" points="40.679 40.467 41.3 40.173 38 34"/><polygon fill="#000" points="40.679 40.467 38 34 38 34"/><polygon fill="#000" points="40.032 40.699 40.679 40.467 38 34"/><polygon fill="#000" points="40.032 40.699 38 34 38 34"/><polygon fill="#000" points="39.366 40.866 40.032 40.699 38 34"/><polygon fill="#000" points="39.366 40.866 38 34 38 34"/><polygon fill="#000" points="38.686 40.966 39.366 40.866 38 34"/><polygon fill="#000" points="38.686 40.966 38 34 38 34"/><polygon fill="#000" points="38 41 38.686 40.966 38 34"/><polygon fill="#000" points="38 41 38 34 38 34"/><polygon fill="#000" points="37.314 40.966 38 41 38 34"/><polygon fill="#000" points="37.314 40.966 38 34 38 34"/><polygon fill="#000" points="36.634 40.866 37.314 40.966 38 34"/><polygon fill="#000" points="36.634 40.866 38 34 38 34"/><polygon fill="#000" points="35.968 40.699 36.634 40.866 38 34"/><polygon fill="#000" points="35.968 40.699 38 34 38 34"/><polygon fill="#000" points="35.321 40.467 35.968 40.699 38 34"/><polygon fill="#000" points="35.321 40.467 38 34 38 34"/><polygon fill="#000" points="34.7 40.173 35.321 40.467 38 34"/><polygon fill="#000" points="34.7 40.173 38 34 38 34"/><polygon fill="#000" points="34.111 39.82 34.7 40.173 38 34"/><polygon fill="#000" points="34.111 39.82 38 34 38 34"/><polygon fill="#000" points="33.559 39.411 34.111 39.82 38 34"/><polygon fill="#000" points="33.559 39.411 38 34 38 34"/><polygon fill="#000" points="33.05 38.95 33.559 39.411 38 34"/><polygon fill="#000" points="33.05 38.95 38 34 38 34"/><polygon fill="#000" points="32.589 38.441 33.05 38.95 38 34"/><polygon fill="#000" points="32.589 38.441 38 34 38 34"/><polygon fill="#000" points="32.18 37.889 32.589 38.441 38 34"/><polygon fill="#000" points="32.18 37.889 38 34 38 34"/><polygon fill="#000" points="31.827 37.3 32.18 37.889 38 34"/><polygon fill="#000" points="31.827 37.3 38 34 38 34"/><polygon fill="#000" points="31.533 36.679 31.827 37.3 38 34"/><polygon fill="#000" points="31.533 36.679 38 34 38 34"/><polygon fill="#000" points="31.301 36.032 31.533 36.679 38 34"/><polygon fill="#000" points="31.301 36.032 38 34 38 34"/><polygon fill="#000" points="31.134 35.366 31.301 36.032 38 34"/><polygon fill="#000" points="31.134 35.366 38 34 38 34"/><polygon fill="#000" points="31.034 34.686 31.134 35.366 38 34"/><polygon fill="#000" points="31.034 34.686 38 34 38 34"/><polygon fill="#000" points="31 34 31.034 34.686 38 34"/><polygon fill="#000" points="31 34 38 34 38 34"/><polygon fill="#000" points="31.034 33.314 31 34 38 34"/><polygon fill="#000" points="31.034 33.314 38 34 38 34"/><polygon fill="#000" points="31.134 32.634 31.034 33.314 38 34"/><polygon fill="#000" points="31.134 32.634 38 34 38 34"/><polygon fill="#000" points="31.301 31.968 31.134 32.634 38 34"/><polygon fill="#000" points="31.301 31.968 38 34 38 34"/><polygon fill="#000" points="31.533 31.321 31.301 31.968 38 34"/><polygon fill="#000" points="31.533 31.321 38 34 38 34"/><polygon fill="#000" points="31.827 30.7 31.533 31.321 38 34"/><polygon fill="#000" points="31.827 30.7 38 34 38 34"/><polygon fill="#000" points="32.18 30.111 31.827 30.7 38 34"/><polygon fill="#000" points="32.18 30.111 38 34 38 34"/><polygon fill="#000" points="32.589 29.559 32.18 30.111 38 34"/><polygon fill="#000" points="32.589 29.559 38 34 38 34"/><polygon fill="#000" points="33.05 29.05 32.589 29.559 38 34"/><polygon fill="#000" points="33.05 29.05 38 34 38 34"/><polygon fill="#000" points="33.559 28.589 33.05 29.05 38 34"/><polygon fill="#000" points="33.559 28.589 38 34 38 34"/><polygon fill="#000" points="34.111 28.18 33.559 28.589 38 34"/><polygon fill="#000" points="34.111 28.18 38 34 38 34"/><polygon fill="#000" points="34.7 27.827 34.111 28.18 38 34"/><polygon fill="#000" points="34.7 27.827 38 34 38 34"/><polygon fill="#000" points="35.321 27.533 34.7 27.827 38 34"/><polygon fill="#000" points="35.321 27.533 38 34 38 34"/><polygon fill="#000" points="35.968 27.301 35.321 27.533 38 34"/><polygon fill="#000" points="35.968 27.301 38 34 38 34"/><polygon fill="#000" points="36.634 27.134 35.968 27.301 38 34"/><polygon fill="#000" points="36.634 27.134 38 34 38 34"/><polygon fill="#000" points="37.314 27.034 36.634 27.134 38 34"/><polygon fill="#000" points="37.314 27.034 38 34 38 34"/><polygon fill="#000" points="38 27 37.314 27.034 38 34"/><polygon fill="#000" points="38 27 38 34 38 34"/><polygon fill="#fff" points="153.686 27.034 153 27 153 34"/><polygon fill="#fff" points="153.686 27.034 153 34 153 34"/><polygon fill="#fff" points="154.366 27.134 153.686 27.034 153 34"/><polygon fill="#fff" points="154.366 27.134 153 34 153 34"/><polygon fill="#fff" points="155.032 27.301 154.366 27.134 153 34"/><polygon fill="#fff" points="155.032 27.301 153 34 153 34"/><polygon fill="#fff" points="155.679 27.533 155.032 27.301 153 34"/><polygon fill="#fff" points="155.679 27.533 153 34 153 34"/><polygon fill="#fff" points="156.3 27.827 155.679 27.533 153 34"/><polygon fill="#fff" points="156.3 27.827 153 34 153 34"/><polygon fill="#fff" points="156.889 28.18 156.3 27.827 153 34"/><polygon fill="#fff" points="156.889 28.18 153 34 153 34"/><polygon fill="#fff" points="157.441 28.589 156.889 28.18 153 34"/><polygon fill="#fff" points="157.441 28.589 153 34 153 34"/><polygon fill="#fff" points="157.95 29.05 157.441 28.589 153 34"/><polygon fill="#fff" points="157.95 29.05 153 34 153 34"/><polygon fill="#fff" points="158.411 29.559 157.95 29.05 153 34"/><polygon fill="#fff" points="158.411 29.559 153 34 153 34"/><polygon fill="#fff" points="158.82 30.111 158.411 29.559 153 34"/><polygon fill="#fff" points="158.82 30.111 153 34 153 34"/><polygon fill="#fff" points="159.173 30.7 158.82 30.111 153 34"/><polygon fill="#fff" points="159.173 30.7 153 34 153 34"/><polygon fill="#fff" points="159.467 31.321 159.173 30.7 153 34"/><polygon fill="#fff" points="159.467 31.321 153 34 153 34"/><polygon fill="#fff" points="159.699 31.968 159.467 31.321 153 34"/><polygon fill="#fff" points="159.699 31.968 153 34 153 34"/><polygon fill="#fff" points="159.866 32.634 159.699 31.968 153 34"/><polygon fill="#fff" points="159.866 32.634 153 34 153 34"/><polygon fill="#fff" points="159.966 33.314 159.866 32.634 153 34"/><polygon fill="#fff" points="159.966 33.314 153 34 153 34"/><polygon fill="#fff" points="160 34 159.966 33.314 153 34"/><polygon fill="#fff" points="160 34 153 34 153 34"/><polygon fill="#fff" points="159.966 34.686 160 34 153 34"/><polygon fill="#fff" points="159.966 34.686 153 34 153 34"/><polygon fill="#fff" points="159.866 35.366 159.966 34.686 153 34"/><polygon fill="#fff" points="159.866 35.366 153 34 153 34"/><polygon fill="#fff" points="159.699 36.032 159.866 35.366 153 34"/><polygon fill="#fff" points="159.699 36.032 153 34 153 34"/><polygon fill="#fff" points="159.467 36.679 159.699 36.032 153 34"/><polygon fill="#fff" points="159.467 36.679 153 34 153 34"/><polygon fill="#fff" points="159.173 37.3 159.467 36.679 153 34"/><polygon fill="#fff" points="159.173 37.3 153 34 153 34"/><polygon fill="#fff" points="158.82 37.889 159.173 37.3 153 34"/><polygon fill="#fff" points="158.82 37.889 153 34 153 34"/><polygon fill="#fff" points="158.411 38.441 158.82 37.889 153 34"/><polygon fill="#fff" points="158.411 38.441 153 34 153 34"/><polygon fill="#fff" points="157.95 38.95 158.411 38.441 153 34"/><polygon fill="#fff" points="157.95 38.95 153 34 153 34"/><polygon fill="#fff" points="157.441 39.411 157.95 38.95 153 34"/><polygon fill="#fff" points="157.441 39.411 153 34 153 34"/><polygon fill="#fff" points="156.889 39.82 157.441 39.411 153 34"/><polygon fill="#fff" points="156.889 39.82 153 34 153 34"/><polygon fill="#fff" points="156.3 40.173 156.889 39.82 153 34"/><polygon fill="#fff" points="156.3 40.173 153 34 153 34"/><polygon fill="#fff" points="155.679 40.467 156.3 40.173 153 34"/><polygon fill="#fff" points="155.679 40.467 153 34 153 34"/><polygon fill="#fff" points="155.032 40.699 155.679 40.467 153 34"/><polygon fill="#fff" points="155.032 40.699 153 34 153 34"/><polygon fill="#fff" points="154.366 40.866 155.032 40.699 153 34"/><polygon fill="#fff" points="154.366 40.866 153 34 153 34"/><polygon fill="#fff" points="153.686 40.966 154.366 40.866 153 34"/><polygon fill="#fff" points="153.686 40.966 153 34 153 34"/><polygon fill="#fff" points="153 41 153.686 40.966 153 34"/><polygon fill="#fff" points="153 41 153 34 153 34"/><polygon fill="#fff" points="152.314 40.966 153 41 153 34"/><polygon fill="#fff" points="152.314 40.966 153 34 153 34"/><polygon fill="#fff" points="151.634 40.866 152.314 40.966 153 34"/><polygon fill="#fff" points="151.634 40.866 153 34 153 34"/><polygon fill="#fff" points="150.968 40.699 151.634 40.866 153 34"/><polygon fill="#fff" points="150.968 40.699 153 34 153 34"/><polygon fill="#fff" points="150.321 40.467 150.968 40.699 153 34"/><polygon fill="#fff" points="150.321 40.467 153 34 153 34"/><polygon fill="#fff" points="149.7 40.173 150.321 40.467 153 34"/><polygon fill="#fff" points="149.7 40.173 153 34 153 34"/><polygon fill="#fff" points="149.111 39.82 149.7 40.173 153 34"/><polygon fill="#fff" points="149.111 39.82 153 34 153 34"/><polygon fill="#fff" points="148.559 39.411 149.111 39.82 153 34"/><polygon fill="#fff" points="148.559 39.411 153 34 153 34"/><polygon fill="#fff" points="148.05 38.95 148.559 39.411 153 34"/><polygon fill="#fff" points="148.05 38.95 153 34 153 34"/><polygon fill="#fff" points="147.589 38.441 148.05 38.95 153 34"/><polygon fill="#fff" points="147.589 38.441 153 34 153 34"/><polygon fill="#fff" points="147.18 37.889 147.589 38.441 153 34"/><polygon fill="#fff" points="147.18 37.889 153 34 153 34"/><polygon fill="#fff" points="146.827 37.3 147.18 37.889 153 34"/><polygon fill="#fff" points="146.827 37.3 153 34 153 34"/><polygon fill="#fff" points="146.533 36.679 146.827 37.3 153 34"/><polygon fill="#fff" points="146.533 36.679 153 34 153 34"/><polygon fill="#fff" points="146.301 36.032 146.533 36.679 153 34"/><polygon fill="#fff" points="146.301 36.032 153 34 153 34"/><polygon fill="#fff" points="146.134 35.366 146.301 36.032 153 34"/><polygon fill="#fff" points="146.134 35.366 153 34 153 34"/><polygon fill="#fff" points="146.034 34.686 146.134 35.366 153 34"/><polygon fill="#fff" points="146.034 34.686 153 34 153 34"/><polygon fill="#fff" points="146 34 146.034 34.686 153 34"/><polygon fill="#fff" points="146 34 153 34 153 34"/><polygon fill="#fff" points="146.034 33.314 146 34 153 34"/><polygon fill="#fff" points="146.034 33.314 153 34 153 34"/><polygon fill="#fff" points="146.134 32.634 146.034 33.314 153 34"/><polygon fill="#fff" points="146.134 32.634 153 34 153 34"/><polygon fill="#fff" points="146.301 31.968 146.134 32.634 153 34"/><polygon fill="#fff" points="146.301 31.968 153 34 153 34"/><polygon fill="#fff" points="146.533 31.321 146.301 31.968 153 34"/><polygon fill="#fff" points="146.533 31.321 153 34 153 34"/><polygon fill="#fff" points="146.827 30.7 146.533 31.321 153 34"/><polygon fill="#fff" points="146.827 30.7 153 34 153 34"/><polygon fill="#fff" points="147.18 30.111 146.827 30.7 153 34"/><polygon fill="#fff" points="147.18 30.111 153 34 153 34"/><polygon fill="#fff" points="147.589 29.559 147.18 30.111 153 34"/><polygon fill="#fff" points="147.589 29.559 153 34 153 34"/><polygon fill="#fff" points="148.05 29.05 147.589 29.559 153 34"/><polygon fill="#fff" points="148.05 29.05 153 34 153 34"/><polygon fill="#fff" points="148.559 28.589 148.05 29.05 153 34"/><polygon fill="#fff" points="148.559 28.589 153 34 153 34"/><polygon fill="#fff" points="149.111 28.18 148.559 28.589 153 34"/><polygon fill="#fff" points="149.111 28.18 153 34 153 34"/><polygon fill="#fff" points="149.7 27.827 149.111 28.18 153 34"/><polygon fill="#fff" points="149.7 27.827 153 34 153 34"/><polygon fill="#fff" points="150.321 27.533 149.7 27.827 153 34"/><polygon fill="#fff" points="150.321 27.533 153 34 153 34"/><polygon fill="#fff" points="150.968 27.301 150.321 27.533 153 34"/><polygon fill="#fff" points="150.968 27.301 153 34 153 34"/><polygon fill="#fff" points="151.634 27.134 150.968 27.301 153 34"/><polygon fill="#fff" points="151.634 27.134 153 34 153 34"/><polygon fill="#fff" points="152.314 27.034 151.634 27.134 153 34"/><polygon fill="#fff" points="152.314 27.034 153 34 153 34"/><polygon fill="#fff" points="153 27 152.314 27.034 153 34"/><polygon fill="#fff" points="153 27 153 34 153 34"/><polygon fill="#000" points="184 34 191 27 198 34"/><polygon fill="#000" points="184 34 198 34 191 41"/><polygon fill="#fff" points="222 34 229 27 236 34"/><polygon fill="#fff" points="222 34 236 34 229 41"/><polygon fill="#fff" points="259.917 38.666 268 24.666 276.083 38.666"/><polygon fill="#fff" points="314.083 29.334 306 43.334 297.917 29.334"/><polygon fill="#fff" points="337 34 344 27 351 34"/><polygon fill="#fff" points="337 34 351 34 344 41"/><polygon fill="#fff" points="383.686 27.034 383 27 383 34"/><polygon fill="#fff" points="383.686 27.034 383 34 383 34"/><polygon fill="#fff" points="384.366 27.134 383.686 27.034 383 34"/><polygon fill="#fff" points="384.366 27.134 383 34 383 34"/><polygon fill="#fff" points="385.032 27.301 384.366 27.134 383 34"/><polygon fill="#fff" points="385.032 27.301 383 34 383 34"/><polygon fill="#fff" points="385.679 27.533 385.032 27.301 383 34"/><polygon fill="#fff" points="385.679 27.533 383 34 383 34"/><polygon fill="#fff" points="386.3 27.827 385.679 27.533 383 34"/><polygon fill="#fff" points="386.3 27.827 383 34 383 34"/><polygon fill="#fff" points="386.889 28.18 386.3 27.827 383 34"/><polygon fill="#fff" points="386.889 28.18 383 34 383 34"/><polygon fill="#fff" points="387.441 28.589 386.889 28.18 383 34"/><polygon fill="#fff" points="387.441 28.589 383 34 383 34"/><polygon fill="#fff" points="387.95 29.05 387.441 28.589 383 34"/><polygon fill="#fff" points="387.95 29.05 383 34 383 34"/><polygon fill="#fff" points="388.411 29.559 387.95 29.05 383 34"/><polygon fill="#fff" points="388.411 29.559 383 34 383 34"/><polygon fill="#fff" points="388.82 30.111 388.411 29.559 383 34"/><polygon fill="#fff" points="388.82 30.111 383 34 383 34"/><polygon fill="#fff" points="389.173 30.7 388.82 30.111 383 34"/><polygon fill="#fff" points="389.173 30.7 383 34 383 34"/><polygon fill="#fff" points="389.467 31.321 389.173 30.7 383 34"/><polygon fill="#fff" points="389.467 31.321 383 34 383 34"/><polygon fill="#fff" points="389.699 31.968 389.467 31.321 383 34"/><polygon fill="#fff" points="389.699 31.968 383 34 383 34"/><polygon fill="#fff" points="389.866 32.634 389.699 31.968 383 34"/><polygon fill="#fff" points="389.866 32.634 383 34 383 34"/><polygon fill="#fff" points="389.966 33.314 389.866 32.634 383 34"/><polygon fill="#fff" points="389.966 33.314 383 34 383 34"/><polygon fill="#fff" points="390 34 389.966 33.314 383 34"/><polygon fill="#fff" points="390 34 383 34 383 34"/><polygon fill="#fff" points="389.966 34.686 390 34 383 34"/><polygon fill="#fff" points="389.966 34.686 383 34 383 34"/><polygon fill="#fff" points="389.866 35.366 389.966 34.686 383 34"/><polygon fill="#fff" points="389.866 35.366 383 34 383 34"/><polygon fill="#fff" points="389.699 36.032 389.866 35.366 383 34"/><polygon fill="#fff" points="389.699 36.032 383 34 383 34"/><polygon fill="#fff" points="389.467 36.679 389.699 36.032 383 34"/><polygon fill="#fff" points="389.467 36.679 383 34 383 34"/><polygon fill="#fff" points="389.173 37.3 389.467 36.679 383 34"/><polygon fill="#fff" points="389.173 37.3 383 34 383 34"/><polygon fill="#fff" points="388.82 37.889 389.173 37.3 383 34"/><polygon fill="#fff" points="388.82 37.889 383 34 383 34"/><polygon fill="#fff" points="388.411 38.441 388.82 37.889 383 34"/><polygon fill="#fff" points="388.411 38.441 383 34 383 34"/><polygon fill="#fff" points="387.95 38.95 388.411 38.441 383 34"/><polygon fill="#fff" points="387.95 38.95 383 34 383 34"/><polygon fill="#fff" points="387.441 39.411 387.95 38.95 383 34"/><polygon fill="#fff" points="387.441 39.411 383 34 383 34"/><polygon fill="#fff" points="386.889 39.82 387.441 39.411 383 34"/><polygon fill="#fff" points="386.889 39.82 383 34 383 34"/><polygon fill="#fff" points="386.3 40.173 386.889 39.82 383 34"/><polygon fill="#fff" points="386.3 40.173 383 34 383 34"/><polygon fill="#fff" points="385.679 40.467 386.3 40.173 383 34"/><polygon fill="#fff" points="385.679 40.467 383 34 383 34"/><polygon fill="#fff" points="385.032 40.699 385.679 40.467 383 34"/><polygon fill="#fff" points="385.032 40.699 383 34 383 34"/><polygon fill="#fff" points="384.366 40.866 385.032 40.699 383 34"/><polygon fill="#fff" points="384.366 40.866 383 34 383 34"/><polygon fill="#fff" points="383.686 40.966 384.366 40.866 383 34"/><polygon fill="#fff" points="383.686 40.966 383 34 383 34"/><polygon fill="#fff" points="383 41 383.686 40.966 383 34"/><polygon fill="#fff" points="383 41 383 34 383 34"/><polygon fill="#fff" points="382.314 40.966 383 41 383 34"/><polygon fill="#fff" points="382.314 40.966 383 34 383 34"/><polygon fill="#fff" points="381.634 40.866 382.314 40.966 383 34"/><polygon fill="#fff" points="381.634 40.866 383 34 383 34"/><polygon fill="#fff" points="380.968 40.699 381.634 40.866 383 34"/><polygon fill="#fff" points="380.968 40.699 383 34 383 34"/><polygon fill="#fff" points="380.321 40.467 380.968 40.699 383 34"/><polygon fill="#fff" points="380.321 40.467 383 34 383 34"/><polygon fill="#fff" points="379.7 40.173 380.321 40.467 383 34"/><polygon fill="#fff" points="379.7 40.173 383 34 383 34"/><polygon fill="#fff" points="379.111 39.82 379.7 40.173 383 34"/><polygon fill="#fff" points="379.111 39.82 383 34 383 34"/><polygon fill="#fff" points="378.559 39.411 379.111 39.82 383 34"/><polygon fill="#fff" points="378.559 39.411 383 34 383 34"/><polygon fill="#fff" points="378.05 38.95 378.559 39.411 383 34"/><polygon fill="#fff" points="378.05 38.95 383 34 383 34"/><polygon fill="#fff" points="377.589 38.441 378.05 38.95 383 34"/><polygon fill="#fff" points="377.589 38.441 383 34 383 34"/><polygon fill="#fff" points="377.18 37.889 377.589 38.441 383 34"/><polygon fill="#fff" points="377.18 37.889 383 34 383 34"/><polygon fill="#fff" points="376.827 37.3 377.18 37.889 383 34"/><polygon fill="#fff" points="376.827 37.3 383 34 383 34"/><polygon fill="#fff" points="376.533 36.679 376.827 37.3 383 34"/><polygon fill="#fff" points="376.533 36.679 383 34 383 34"/><polygon fill="#fff" points="376.301 36.032 376.533 36.679 383 34"/><polygon fill="#fff" points="376.301 36.032 383 34 383 34"/><polygon fill="#fff" points="376.134 35.366 376.301 36.032 383 34"/><polygon fill="#fff" points="376.134 35.366 383 34 383 34"/><polygon fill="#fff" points="376.034 34.686 376.134 35.366 383 34"/><polygon fill="#fff" points="376.034 34.686 383 34 383 34"/><polygon fill="#fff" points="376 34 376.034 34.686 383 34"/><polygon fill="#fff" points="376 34 383 34 383 34"/><polygon fill="#fff" points="376.034 33.314 376 34 383 34"/><polygon fill="#fff" points="376.034 33.314 383 34 383 34"/><polygon fill="#fff" points="376.134 32.634 376.034 33.314 383 34"/><polygon fill="#fff" points="376.134 32.634 383 34 383 34"/><polygon fill="#fff" points="376.301 31.968 376.134 32.634 383 34"/><polygon fill="#fff" points="376.301 31.968 383 34 383 34"/><polygon fill="#fff" points="376.533 31.321 376.301 31.968 383 34"/><polygon fill="#fff" points="376.533 31.321 383 34 383 34"/><polygon fill="#fff" points="376.827 30.7 376.533 31.321 383 34"/><polygon fill="#fff" points="376.827 30.7 383 34 383 34"/><polygon fill="#fff" points="377.18 30.111 376.827 30.7 383 34"/><polygon fill="#fff" points="377.18 30.111 383 34 383 34"/><polygon fill="#fff" points="377.589 29.559 377.18 30.111 383 34"/><polygon fill="#fff" points="377.589 29.559 383 34 383 34"/><polygon fill="#fff" points="378.05 29.05 377.589 29.559 383 34"/><polygon fill="#fff" points="378.05 29.05 383 34 383 34"/><polygon fill="#fff" points="378.559 28.589 378.05 29.05 383 34"/><polygon fill="#fff" points="378.559 28.589 383 34 383 34"/><polygon fill="#fff" points="379.111 28.18 378.559 28.589 383 34"/><polygon fill="#fff" points="379.111 28.18 383 34 383 34"/><polygon fill="#fff" points="379.7 27.827 379.111 28.18 383 34"/><polygon fill="#fff" points="379.7 27.827 383 34 383 34"/><polygon fill="#fff" points="380.321 27.533 379.7 27.827 383 34"/><polygon fill="#fff" points="380.321 27.533 383 34 383 34"/><polygon fill="#fff" points="380.968 27.301 380.321 27.533 383 34"/><polygon fill="#fff" points="380.968 27.301 383 34 383 34"/><polygon fill="#fff" points="381.634 27.134 380.968 27.301 383 34"/><polygon fill="#fff" points="381.634 27.134 383 34 383 34"/><polygon fill="#fff" points="382.314 27.034 381.634 27.134 383 34"/><polygon fill="#fff" points="382.314 27.034 383 34 383 34"/><polygon fill="#fff" points="383 27 382.314 27.034 383 34"/><polygon fill="#fff" points="383 27 383 34 383 34"/><polygon fill="#fff" points="452 27 452 41 466 41"/><polygon fill="#fff" points="452 27 466 41 466 27"/><polygon fill="#fff" points="492.333 25.917 506.333 34 492.333 42.083"/><polygon fill="#fff" points="540.667 42.083 526.667 34 540.667 25.917"/><polygon fill="#fff" points="577.051 34.992 574 25.6 569.062 40.796"/><polygon fill="#fff" points="578.938 40.796 574 25.6 570.949 34.992"/><polygon fill="#fff" points="581.989 31.404 566.011 31.404 574 37.209"/><polygon fill="#00f" points="38.686 53.034 38 53 38 60"/><polygon fill="#00f" points="38.686 53.034 38 60 38 60"/><polygon fill="#00f" points="39.366 53.134 38.686 53.034 38 60"/><polygon fill="#00f" points="39.366 53.134 38 60 38 60"/><polygon fill="#00f" points="40.032 53.301 39.366 53.134 38 60"/><polygon fill="#00f" points="40.032 53.301 38 60 38 60"/><polygon fill="#00f" points="40.679 53.533 40.032 53.301 38 60"/><polygon fill="#00f" points="40.679 53.533 38 60 38 60"/><polygon fill="#00f" points="41.3 53.827 40.679 53.533 38 60"/><polygon fill="#00f" points="41.3 53.827 38 60 38 60"/><polygon fill="#00f" points="41.889 54.18 41.3 53.827 38 60"/><polygon fill="#00f" points="41.889 54.18 38 60 38 60"/><polygon fill="#00f" points="42.441 54.589 41.889 54.18 38 60"/><polygon fill="#00f" points="42.441 54.589 38 60 38 60"/><polygon fill="#00f" points="42.95 55.05 42.441 54.589 38 60"/><polygon fill="#00f" points="42.95 55.05 38 60 38 60"/><polygon fill="#00f" points="43.411 55.559 42.95 55.05 38 60"/><polygon fill="#00f" points="43.411 55.559 38 60 38 60"/><polygon fill="#00f" points="43.82 56.111 43.411 55.559 38 60"/><polygon fill="#00f" points="43.82 56.111 38 60 38 60"/><polygon fill="#00f" points="44.173 56.7 43.82 56.111 38 60"/><polygon fill="#00f" points="44.173 56.7 38 60 38 60"/><polygon fill="#00f" points="44.467 57.321 44.173 56.7 38 60"/><polygon fill="#00f" points="44.467 57.321 38 60 38 60"/><polygon fill="#00f" points="44.699 57.968 44.467 57.321 38 60"/><polygon fill="#00f" points="44.699 57.968 38 60 38 60"/><polygon fill="#00f" points="44.866 58.634 44.699 57.968 38 60"/><polygon fill="#00f" points="44.866 58.634 38 60 38 60"/><polygon fill="#00f" points="44.966 59.314 44.866 58.634 38 60"/><polygon fill="#00f" points="44.966 59.314 38 60 38 60"/><polygon fill="#00f" points="45 60 44.966 59.314 38 60"/><polygon fill="#00f" points="45 60 38 60 38 60"/><polygon fill="#00f" points="44.966 60.686 45 60 38 60"/><polygon fill="#00f" points="44.966 60.686 38 60 38 60"/><polygon fill="#00f" points="44.866 61.366 44.966 60.686 38 60"/><polygon fill="#00f" points="44.866 61.366 38 60 38 60"/><polygon fill="#00f" points="44.699 62.032 44.866 61.366 38 60"/><polygon fill="#00f" points="44.699 62.032 38 60 38 60"/><polygon fill="#00f" points="44.467 62.679 44.699 62.032 38 60"/><polygon fill="#00f" points="44.467 62.679 38 60 38 60"/><polygon fill="#00f" points="44.173 63.3 44.467 62.679 38 60"/><polygon fill="#00f" points="44.173 63.3 38 60 38 60"/><polygon fill="#00f" points="43.82 63.889 44.173 63.3 38 60"/><polygon fill="#00f" points="43.82 63.889 38 60 38 60"/><polygon fill="#00f" points="43.411 64.441 43.82 63.889 38 60"/><polygon fill="#00f" points="43.411 64.441 38 60 38 60"/><polygon fill="#00f" points="42.95 64.95 43.411 64.441 38 60"/><polygon fill="#00f" points="42.95 64.95 38 60 38 60"/><polygon fill="#00f" points="42.441 65.411 42.95 64.95 38 60"/><polygon fill="#00f" points="42.441 65.411 38 60 38 60"/><polygon fill="#00f" points="41.889 65.82 42.441 65.411 38 60"/><polygon fill="#00f" points="41.889 65.82 38 60 38 60"/><polygon fill="#00f" points="41.3 66.173 41.889 65.82 38 60"/><polygon fill="#00f" points="41.3 66.173 38 60 38 60"/><polygon fill="#00f" points="40.679 66.467 41.3 66.173 38 60"/><polygon fill="#00f" points="40.679 66.467 38 60 38 60"/><polygon fill="#00f" points="40.032 66.699 40.679 66.467 38 60"/><polygon fill="#00f" points="40.032 66.699 38 60 38 60"/><polygon fill="#00f" points="39.366 66.866 40.032 66.699 38 60"/><polygon fill="#00f" points="39.366 66.866 38 60 38 60"/><polygon fill="#00f" points="38.686 66.966 39.366 66.866 38 60"/><polygon fill="#00f" points="38.686 66.966 38 60 38 60"/><polygon fill="#00f" points="38 67 38.686 66.966 38 60"/><polygon fill="#00f" points="38 67 38 60 38 60"/><polygon fill="#00f" points="37.314 66.966 38 67 38 60"/><polygon fill="#00f" points="37.314 66.966 38 60 38 60"/><polygon fill="#00f" points="36.634 66.866 37.314 66.966 38 60"/><polygon fill="#00f" points="36.634 66.866 38 60 38 60"/><polygon fill="#00f" points="35.968 66.699 36.634 66.866 38 60"/><polygon fill="#00f" points="35.968 66.699 38 60 38 60"/><polygon fill="#00f" points="35.321 66.467 35.968 66.699 38 60"/><polygon fill="#00f" points="35.321 66.467 38 60 38 60"/><polygon fill="#00f" points="34.7 66.173 35.321 66.467 38 60"/><polygon fill="#00f" points="34.7 66.173 38 60 38 60"/><polygon fill="#00f" points="34.111 65.82 34.7 66.173 38 60"/><polygon fill="#00f" points="34.111 65.82 38 60 38 60"/><polygon fill="#00f" points="33.559 65.411 34.111 65.82 38 60"/><polygon fill="#00f" points="33.559 65.411 38 60 38 60"/><polygon fill="#00f" points="33.05 64.95 33.559 65.411 38 60"/><polygon fill="#00f" points="33.05 64.95 38 60 38 60"/><polygon fill="#00f" points="32.589 64.441 33.05 64.95 38 60"/><polygon fill="#00f" points="32.589 64.441 38 60 38 60"/><polygon fill="#00f" points="32.18 63.889 32.589 64.441 38 60"/><polygon fill="#00f" points="32.18 63.889 38 60 38 60"/><polygon fill="#00f" points="31.827 63.3 32.18 63.889 38 60"/><polygon fill="#00f" points="31.827 63.3 38 60 38 60"/><polygon fill="#00f" points="31.533 62.679 31.827 63.3 38 60"/><polygon fill="#00f" points="31.533 62.679 38 60 38 60"/><polygon fill="#00f" points="31.301 62.032 31.533 62.679 38 60"/><polygon fill="#00f" points="31.301 62.032 38 60 38 60"/><polygon fill="#00f" points="31.134 61.366 31.301 62.032 38 60"/><polygon fill="#00f" points="31.134 61.366 38 60 38 60"/><polygon fill="#00f" points="31.034 60.686 31.134 61.366 38 60"/><polygon fill="#00f" points="31.034 60.686 38 60 38 60"/><polygon fill="#00f" points="31 60 31.034 60.686 38 60"/><polygon fill="#00f" points="31 60 38 60 38 60"/><polygon fill="#00f" points="31.034 59.314 31 60 38 60"/><polygon fill="#00f" points="31.034 59.314 38 60 38 60"/><polygon fill="#00f" points="31.134 58.634 31.034 59.314 38 60"/><polygon fill="#00f" points="31.134 58.634 38 60 38 60"/><polygon fill="#00f" points="31.301 57.968 31.134 58.634 38 60"/><polygon fill="#00f" points="31.301 57.968 38 60 38 60"/><polygon fill="#00f" points="31.533 57.321 31.301 57.968 38 60"/><polygon fill="#00f" points="31.533 57.321 38 60 38 60"/><polygon fill="#00f" points="31.827 56.7 31.533 57.321 38 60"/><polygon fill="#00f" points="31.827 56.7 38 60 38 60"/><polygon fill="#00f" points="32.18 56.111 31.827 56.7 38 60"/><polygon fill="#00f" points="32.18 56.111 38 60 38 60"/><polygon fill="#00f" points="32.589 55.559 32.18 56.111 38 60"/><polygon fill="#00f" points="32.589 55.559 38 60 38 60"/><polygon fill="#00f" points="33.05 55.05 32.589 55.559 38 60"/><polygon fill="#00f" points="33.05 55.05 38 60 38 60"/><polygon fill="#00f" points="33.559 54.589 33.05 55.05 38 60"/><polygon fill="#00f" points="33.559 54.589 38 60 38 60"/><polygon fill="#00f" points="34.111 54.18 33.559 54.589 38 60"/><polygon fill="#00f" points="34.111 54.18 38 60 38 60"/><polygon fill="#00f" points="34.7 53.827 34.111 54.18 38 60"/><polygon fill="#00f" points="34.7 53.827 38 60 38 60"/><polygon fill="#00f" points="35.321 53.533 34.7 53.827 38 60"/><polygon fill="#00f" points="35.321 53.533 38 60 38 60"/><polygon fill="#00f" points="35.968 53.301 35.321 53.533 38 60"/><polygon fill="#00f" points="35.968 53.301 38 60 38 60"/><polygon fill="#00f" points="36.634 53.134 35.968 53.301 38 60"/><polygon fill="#00f" points="36.634 53.134 38 60 38 60"/><polygon fill="#00f" points="37.314 53.034 36.634 53.134 38 60"/><polygon fill="#00f" points="37.314 53.034 38 60 38 60"/><polygon fill="#00f" points="38 53 37.314 53.034 38 60"/><polygon fill="#00f" points="38 53 38 60 38 60"/><polygon fill="gold" points="153.686 53.034 153 53 153 60"/><polygon fill="gold" points="153.686 53.034 153 60 153 60"/><polygon fill="gold" points="154.366 53.134 153.686 53.034 153 60"/><polygon fill="gold" points="154.366 53.134 153 60 153 60"/><polygon fill="gold" points="155.032 53.301 154.366 53.134 153 60"/><polygon fill="gold" points="155.032 53.301 153 60 153 60"/><polygon fill="gold" points="155.679 53.533 155.032 53.301 153 60"/><polygon fill="gold" points="155.679 53.533 153 60 153 60"/><polygon fill="gold" points="156.3 53.827 155.679 53.533 153 60"/><polygon fill="gold" points="156.3 53.827 153 60 153 60"/><polygon fill="gold" points="156.889 54.18 156.3 53.827 153 60"/><polygon fill="gold" points="156.889 54.18 153 60 153 60"/><polygon fill="gold" points="157.441 54.589 156.889 54.18 153 60"/><polygon fill="gold" points="157.441 54.589 153 60 153 60"/><polygon fill="gold" points="157.95 55.05 157.441 54.589 153 60"/><polygon fill="gold" points="157.95 55.05 153 60 153 60"/><polygon fill="gold" points="158.411 55.559 157.95 55.05 153 60"/><polygon fill="gold" points="158.411 55.559 153 60 153 60"/><polygon fill="gold" points="158.82 56.111 158.411 55.559 153 60"/><polygon fill="gold" points="158.82 56.111 153 60 153 60"/><polygon fill="gold" points="159.173 56.7 158.82 56.111 153 60"/><polygon fill="gold" points="159.173 56.7 153 60 153 60"/><polygon fill="gold" points="159.467 57.321 159.173 56.7 153 60"/><polygon fill="gold" points="159.467 57.321 153 60 153 60"/><polygon fill="gold" points="159.699 57.968 159.467 57.321 153 60"/><polygon fill="gold" points="159.699 57.968 153 60 153 60"/><polygon fill="gold" points="159.866 58.634 159.699 57.968 153 60"/><polygon fill="gold" points="159.866 58.634 153 60 153 60"/><polygon fill="gold" points="159.966 59.314 159.866 58.634 153 60"/><polygon fill="gold" points="159.966 59.314 153 60 153 60"/><polygon fill="gold" points="160 60 159.966 59.314 153 60"/><polygon fill="gold" points="160 60 153 60 153 60"/><polygon fill="gold" points="159.966 60.686 160 60 153 60"/><polygon fill="gold" points="159.966 60.686 153 60 153 60"/><polygon fill="gold" points="159.866 61.366 159.966 60.686 153 60"/><polygon fill="gold" points="159.866 61.366 153 60 153 60"/><polygon fill="gold" points="159.699 62.032 159.866 61.366 153 60"/><polygon fill="gold" points="159.699 62.032 153 60 153 60"/><polygon fill="gold" points="159.467 62.679 159.699 62.032 153 60"/><polygon fill="gold" points="159.467 62.679 153 60 153 60"/><polygon fill="gold" points="159.173 63.3 159.467 62.679 153 60"/><polygon fill="gold" points="159.173 63.3 153 60 153 60"/><polygon fill="gold" points="158.82 63.889 159.173 63.3 153 60"/><polygon fill="gold" points="158.82 63.889 153 60 153 60"/><polygon fill="gold" points="158.411 64.441 158.82 63.889 153 60"/><polygon fill="gold" points="158.411 64.441 153 60 153 60"/><polygon fill="gold" points="157.95 64.95 158.411 64.441 153 60"/><polygon fill="gold" points="157.95 64.95 153 60 153 60"/><polygon fill="gold" points="157.441 65.411 157.95 64.95 153 60"/><polygon fill="gold" points="157.441 65.411 153 60 153 60"/><polygon fill="gold" points="156.889 65.82 157.441 65.411 153 60"/><polygon fill="gold" points="156.889 65.82 153 60 153 60"/><polygon fill="gold" points="156.3 66.173 156.889 65.82 153 60"/><polygon fill="gold" points="156.3 66.173 153 60 153 60"/><polygon fill="gold" points="155.679 66.467 156.3 66.173 153 60"/><polygon fill="gold" points="155.679 66.467 153 60 153 60"/><polygon fill="gold" points="155.032 66.699 155.679 66.467 153 60"/><polygon fill="gold" points="155.032 66.699 153 60 153 60"/><polygon fill="gold" points="154.366 66.866 155.032 66.699 153 60"/><polygon fill="gold" points="154.366 66.866 153 60 153 60"/><polygon fill="gold" points="153.686 66.966 154.366 66.866 153 60"/><polygon fill="gold" points="153.686 66.966 153 60 153 60"/><polygon fill="gold" points="153 67 153.686 66.966 153 60"/><polygon fill="gold" points="153 67 153 60 153 60"/><polygon fill="gold" points="152.314 66.966 153 67 153 60"/><polygon fill="gold" points="152.314 66.966 153 60 153 60"/><polygon fill="gold" points="151.634 66.866 152.314 66.966 153 60"/><polygon fill="gold" points="151.634 66.866 153 60 153 60"/><polygon fill="gold" points="150.968 66.699 151.634 66.866 153 60"/><polygon fill="gold" points="150.968 66.699 153 60 153 60"/><polygon fill="gold" points="150.321 66.467 150.968 66.699 153 60"/><polygon fill="gold" points="150.321 66.467 153 60 153 60"/><polygon fill="gold" points="149.7 66.173 150.321 66.467 153 60"/><polygon fill="gold" points="149.7 66.173 153 60 153 60"/><polygon fill="gold" points="149.111 65.82 149.7 66.173 153 60"/><polygon fill="gold" points="149.111 65.82 153 60 153 60"/><polygon fill="gold" points="148.559 65.411 149.111 65.82 153 60"/><polygon fill="gold" points="148.559 65.411 153 60 153 60"/><polygon fill="gold" points="148.05 64.95 148.559 65.411 153 60"/><polygon fill="gold" points="148.05 64.95 153 60 153 60"/><polygon fill="gold" points="147.589 64.441 148.05 64.95 153 60"/><polygon fill="gold" points="147.589 64.441 153 60 153 60"/><polygon fill="gold" points="147.18 63.889 147.589 64.441 153 60"/><polygon fill="gold" points="147.18 63.889 153 60 153 60"/><polygon fill="gold" points="146.827 63.3 147.18 63.889 153 60"/><polygon fill="gold" points="146.827 63.3 153 60 153 60"/><polygon fill="gold" points="146.533 62.679 146.827 63.3 153 60"/><polygon fill="gold" points="146.533 62.679 153 60 153 60"/><polygon fill="gold" points="146.301 62.032 146.533 62.679 153 60"/><polygon fill="gold" points="146.301 62.032 153 60 153 60"/><polygon fill="gold" points="146.134 61.366 146.301 62.032 153 60"/><polygon fill="gold" points="146.134 61.366 153 60 153 60"/><polygon fill="gold" points="146.034 60.686 146.134 61.366 153 60"/><polygon fill="gold" points="146.034 60.686 153 60 153 60"/><polygon fill="gold" points="146 60 146.034 60.686 153 60"/><polygon fill="gold" points="146 60 153 60 153 60"/><polygon fill="gold" points="146.034 59.314 146 60 153 60"/><polygon fill="gold" points="146.034 59.314 153 60 153 60"/><polygon fill="gold" points="146.134 58.634 146.034 59.314 153 60"/><polygon fill="gold" points="146.134 58.634 153 60 153 60"/><polygon fill="gold" points="146.301 57.968 146.134 58.634 153 60"/><polygon fill="gold" points="146.301 57.968 153 60 153 60"/><polygon fill="gold" points="146.533 57.321 146.301 57.968 153 60"/><polygon fill="gold" points="146.533 57.321 153 60 153 60"/><polygon fill="gold" points="146.827 56.7 146.533 57.321 153 60"/><polygon fill="gold" points="146.827 56.7 153 60 153 60"/><polygon fill="gold" points="147.18 56.111 146.827 56.7 153 60"/><polygon fill="gold" points="147.18 56.111 153 60 153 60"/><polygon fill="gold" points="147.589 55.559 147.18 56.111 153 60"/><polygon fill="gold" points="147.589 55.559 153 60 153 60"/><polygon fill="gold" points="148.05 55.05 147.589 55.559 153 60"/><polygon fill="gold" points="148.05 55.05 153 60 153 60"/><polygon fill="gold" points="148.559 54.589 148.05 55.05 153 60"/><polygon fill="gold" points="148.559 54.589 153 60 153 60"/><polygon fill="gold" points="149.111 54.18 148.559 54.589 153 60"/><polygon fill="gold" points="149.111 54.18 153 60 153 60"/><polygon fill="gold" points="149.7 53.827 149.111 54.18 153 60"/><polygon fill="gold" points="149.7 53.827 153 60 153 60"/><polygon fill="gold" points="150.321 53.533 149.7 53.827 153 60"/><polygon fill="gold" points="150.321 53.533 153 60 153 60"/><polygon fill="gold" points="150.968 53.301 150.321 53.533 153 60"/><polygon fill="gold" points="150.968 53.301 153 60 153 60"/><polygon fill="gold" points="151.634 53.134 150.968 53.301 153 60"/><polygon fill="gold" points="151.634 53.134 153 60 153 60"/><polygon fill="gold" points="152.314 53.034 151.634 53.134 153 60"/><polygon fill="gold" points="152.314 53.034 153 60 153 60"/><polygon fill="gold" points="153 53 152.314 53.034 153 60"/><polygon fill="gold" points="153 53 153 60 153 60"/><polygon fill="#00f" points="184 60 191 53 198 60"/><polygon fill="#00f" points="184 60 198 60 191 67"/><polygon fill="gold" points="222 60 229 53 236 60"/><polygon fill="gold" points="222 60 236 60 229 67"/><polygon fill="gold" points="259.917 64.666 268 50.666 276.083 64.666"/><polygon fill="gold" points="314.083 55.334 306 69.334 297.917 55.334"/><polygon fill="gold" points="337 60 344 53 351 60"/><polygon fill="gold" points="337 60 351 60 344 67"/><polygon fill="gold" points="383.686 53.034 383 53 383 60"/><polygon fill="gold" points="383.686 53.034 383 60 383 60"/><polygon fill="gold" points="384.366 53.134 383.686 53.034 383 60"/><polygon fill="gold" points="384.366 53.134 383 60 383 60"/><polygon fill="gold" points="385.032 53.301 384.366 53.134 383 60"/><polygon fill="gold" points="385.032 53.301 383 60 383 60"/><polygon fill="gold" points="385.679 53.533 385.032 53.301 383 60"/><polygon fill="gold" points="385.679 53.533 383 60 383 60"/><polygon fill="gold" points="386.3 53.827 385.679 53.533 383 60"/><polygon fill="gold" points="386.3 53.827 383 60 383 60"/><polygon fill="gold" points="386.889 54.18 386.3 53.827 383 60"/><polygon fill="gold" points="386.889 54.18 383 60 383 60"/><polygon fill="gold" points="387.441 54.589 386.889 54.18 383 60"/><polygon fill="gold" points="387.441 54.589 383 60 383 60"/><polygon fill="gold" points="387.95 55.05 387.441 54.589 383 60"/><polygon fill="gold" points="387.95 55.05 383 60 383 60"/><polygon fill="gold" points="388.411 55.559 387.95 55.05 383 60"/><polygon fill="gold" points="388.411 55.559 383 60 383 60"/><polygon fill="gold" points="388.82 56.111 388.411 55.559 383 60"/><polygon fill="gold" points="388.82 56.111 383 60 383 60"/><polygon fill="gold" points="389.173 56.7 388.82 56.111 383 60"/><polygon fill="gold" points="389.173 56.7 383 60 383 60"/><polygon fill="gold" points="389.467 57.321 389.173 56.7 383 60"/><polygon fill="gold" points="389.467 57.321 383 60 383 60"/><polygon fill="gold" points="389.699 57.968 389.467 57.321 383 60"/><polygon fill="gold" points="389.699 57.968 383 60 383 60"/><polygon fill="gold" points="389.866 58.634 389.699 57.968 383 60"/><polygon fill="gold" points="389.866 58.634 383 60 383 60"/><polygon fill="gold" points="389.966 59.314 389.866 58.634 383 60"/><polygon fill="gold" points="389.966 59.314 383 60 383 60"/><polygon fill="gold" points="390 60 389.966 59.314 383 60"/><polygon fill="gold" points="390 60 383 60 383 60"/><polygon fill="gold" points="389.966 60.686 390 60 383 60"/><polygon fill="gold" points="389.966 60.686 383 60 383 60"/><polygon fill="gold" points="389.866 61.366 389.966 60.686 383 60"/><polygon fill="gold" points="389.866 61.366 383 60 383 60"/><polygon fill="gold" points="389.699 62.032 389.866 61.366 383 60"/><polygon fill="gold" points="389.699 62.032 383 60 383 60"/><polygon fill="gold" points="389.467 62.679 389.699 62.032 383 60"/><polygon fill="gold" points="389.467 62.679 383 60 383 60"/><polygon fill="gold" points="389.173 63.3 389.467 62.679 383 60"/><polygon fill="gold" points="389.173 63.3 383 60 383 60"/><polygon fill="gold" points="388.82 63.889 389.173 63.3 383 60"/><polygon fill="gold" points="388.82 63.889 383 60 383 60"/><polygon fill="gold" points="388.411 64.441 388.82 63.889 383 60"/><polygon fill="gold" points="388.411 64.441 383 60 383 60"/><polygon fill="gold" points="387.95 64.95 388.411 64.441 383 60"/><polygon fill="gold" points="387.95 64.95 383 60 383 60"/><polygon fill="gold" points="387.441 65.411 387.95 64.95 383 60"/><polygon fill="gold" points="387.441 65.411 383 60 383 60"/><polygon fill="gold" points="386.889 65.82 387.441 65.411 383 60"/><polygon fill="gold" points="386.889 65.82 383 60 383 60"/><polygon fill="gold" points="386.3 66.173 386.889 65.82 383 60"/><polygon fill="gold" points="386.3 66.173 383 60 383 60"/><polygon fill="gold" points="385.679 66.467 386.3 66.173 383 60"/><polygon fill="gold" points="385.679 66.467 383 60 383 60"/><polygon fill="gold" points="385.032 66.699 385.679 66.467 383 60"/><polygon fill="gold" points="385.032 66.699 383 60 383 60"/><polygon fill="gold" points="384.366 66.866 385.032 66.699 383 60"/><polygon fill="gold" points="384.366 66.866 383 60 383 60"/><polygon fill="gold" points="383.686 66.966 384.366 66.866 383 60"/><polygon fill="gold" points="383.686 66.966 383 60 383 60"/><polygon fill="gold" points="383 67 383.686 66.966 383 60"/><polygon fill="gold" points="383 67 383 60 383 60"/><polygon fill="gold" points="382.314 66.966 383 67 383 60"/><polygon fill="gold" points="382.314 66.966 383 60 383 60"/><polygon fill="gold" points="381.634 66.866 382.314 66.966 383 60"/><polygon fill="gold" points="381.634 66.866 383 60 383 60"/><polygon fill="gold" points="380.968 66.699 381.634 66.866 383 60"/><polygon fill="gold" points="380.968 66.699 383 60 383 60"/><polygon fill="gold" points="380.321 66.467 380.968 66.699 383 60"/><polygon fill="gold" points="380.321 66.467 383 60 383 60"/><polygon fill="gold" points="379.7 66.173 380.321 66.467 383 60"/><polygon fill="gold" points="379.7 66.173 383 60 383 60"/><polygon fill="gold" points="379.111 65.82 379.7 66.173 383 60"/><polygon fill="gold" points="379.111 65.82 383 60 383 60"/><polygon fill="gold" points="378.559 65.411 379.111 65.82 383 60"/><polygon fill="gold" points="378.559 65.411 383 60 383 60"/><polygon fill="gold" points="378.05 64.95 378.559 65.411 383 60"/><polygon fill="gold" points="378.05 64.95 383 60 383 60"/><polygon fill="gold" points="377.589 64.441 378.05 64.95 383 60"/><polygon fill="gold" points="377.589 64.441 383 60 383 60"/><polygon fill="gold" points="377.18 63.889 377.589 64.441 383 60"/><polygon fill="gold" points="377.18 63.889 383 60 383 60"/><polygon fill="gold" points="376.827 63.3 377.18 63.889 383 60"/><polygon fill="gold" points="376.827 63.3 383 60 383 60"/><polygon fill="gold" points="376.533 62.679 376.827 63.3 383 60"/><polygon fill="gold" points="376.533 62.679 383 60 383 60"/><polygon fill="gold" points="376.301 62.032 376.533 62.679 383 60"/><polygon fill="gold" points="376.301 62.032 383 60 383 60"/><polygon fill="gold" points="376.134 61.366 376.301 62.032 383 60"/><polygon fill="gold" points="376.134 61.366 383 60 383 60"/><polygon fill="gold" points="376.034 60.686 376.134 61.366 383 60"/><polygon fill="gold" points="376.034 60.686 383 60 383 60"/><polygon fill="gold" points="376 60 376.034 60.686 383 60"/><polygon fill="gold" points="376 60 383 60 383 60"/><polygon fill="gold" points="376.034 59.314 376 60 383 60"/><polygon fill="gold" points="376.034 59.314 383 60 383 60"/><polygon fill="gold" points="376.134 58.634 376.034 59.314 383 60"/><polygon fill="gold" points="376.134 58.634 383 60 383 60"/><polygon fill="gold" points="376.301 57.968 376.134 58.634 383 60"/><polygon fill="gold" points="376.301 57.968 383 60 383 60"/><polygon fill="gold" points="376.533 57.321 376.301 57.968 383 60"/><polygon fill="gold" points="376.533 57.321 383 60 383 60"/><polygon fill="gold" points="376.827 56.7 376.533 57.321 383 60"/><polygon fill="gold" points="376.827 56.7 383 60 383 60"/><polygon fill="gold" points="377.18 56.111 376.827 56.7 383 60"/><polygon fill="gold" points="377.18 56.111 383 60 383 60"/><polygon fill="gold" points="377.589 55.559 377.18 56.111 383 60"/><polygon fill="gold" points="377.589 55.559 383 60 383 60"/><polygon fill="gold" points="378.05 55.05 377.589 55.559 383 60"/><polygon fill="gold" points="378.05 55.05 383 60 383 60"/><polygon fill="gold" points="378.559 54.589 378.05 55.05 383 60"/><polygon fill="gold" points="378.559 54.589 383 60 383 60"/><polygon fill="gold" points="379.111 54.18 378.559 54.589 383 60"/><polygon fill="gold" points="379.111 54.18 383 60 383 60"/><polygon fill="gold" points="379.7 53.827 379.111 54.18 383 60"/><polygon fill="gold" points="379.7 53.827 383 60 383 60"/><polygon fill="gold" points="380.321 53.533 379.7 53.827 383 60"/><polygon fill="gold" points="380.321 53.533 383 60 383 60"/><polygon fill="gold" points="380.968 53.301 380.321 53.533 383 60"/><polygon fill="gold" points="380.968 53.301 383 60 383 60"/><polygon fill="gold" points="381.634 53.134 380.968 53.301 383 60"/><polygon fill="gold" points="381.634 53.134 383 60 383 60"/><polygon fill="gold" points="382.314 53.034 381.634 53.134 383 60"/><polygon fill="gold" points="382.314 53.034 383 60 383 60"/><polygon fill="gold" points="383 53 382.314 53.034 383 60"/><polygon fill="gold" points="383 53 383 60 383 60"/><polygon fill="gold" points="452 53 452 67 466 67"/><polygon fill="gold" points="452 53 466 67 466 53"/><polygon fill="gold" points="492.333 51.917 506.333 60 492.333 68.083"/><polygon fill="gold" points="540.667 68.083 526.667 60 540.667 51.917"/><polygon fill="gold" points="577.051 60.992 574 51.6 569.062 66.796"/><polygon fill="gold" points="578.938 66.796 574 51.6 570.949 60.992"/><polygon fill="gold" points="581.989 57.404 566.011 57.404 574 63.209"/><text x="35" y="20" fill="#000" font-family="SansSerif" font-size="10">0</text><text x="74" y="20" fill="#000" font-family="SansSerif" font-size="10">1</text><text x="112" y="20" fill="#000" font-family="SansSerif" font-size="10">2</text><text x="150" y="20" fill="#000" font-family="SansSerif" font-size="10">3</text><text x="188" y="20" fill="#000" font-family="SansSerif" font-size="10">4</text><text x="227" y="20" fill="#000" font-family="SansSerif" font-size="10">5</text><text x="265" y="20" fill="#000" font-family="SansSerif" font-size="10">6</text><text x="304" y="20" fill="#000" font-family="SansSerif" font-size="10">7</text><text x="342" y="20" fill="#000" font-family="SansSerif" font-size="10">8</text><text x="380" y="20" fill="#000" font-family="SansSerif" font-size="10">9</text><text x="415" y="20" fill="#000" font-family="SansSerif" font-size="10">10</text><text x="455" y="20" fill="#000" font-family="SansSerif" font-size="10">11</text><text x="493" y="20" fill="#000" font-family="SansSerif" font-size="10">12</text><text x="531" y="20" fill="#000" font-family="SansSerif" font-size="10">13</text><text x="568" y="20" fill="#000" font-family="SansSerif" font-size="10">14</text><polyline fill="none" stroke="#000" stroke-width="1" points="69 34 83 34"/><polyline fill="none" stroke="#000" stroke-width="1" points="76 41 76 27"/><polyline fill="none" stroke="#000" stroke-width="1" points="108 27 122 41"/><polyline fill="none" stroke="#000" stroke-width="1" points="108 41 122 27"/><polyline fill="none" stroke="#000" stroke-width="1" points="160 34 159.966 33.314 159.866 32.634 159.699 31.968 159.467 31.321 159.173 30.7 158.82 30.111 158.411 29.559 157.95 29.05 157.441 28.589 156.889 28.18 156.3 27.827 155.679 27.533 155.032 27.301 154.366 27.134 153.686 27.034 153 27 152.314 27.034 151.634 27.134 150.968 27.301 150.321 27.533 149.7 27.827 149.111 28.18 148.559 28.589 148.05 29.05 147.589 29.559 147.18 30.111 146.827 30.7 146.533 31.321 146.301 31.968 146.134 32.634 146.034 33.314 146 34 146.034 34.686 146.134 35.366 146.301 36.032 146.533 36.679 146.827 37.3 147.18 37.889 147.589 38.441 148.05 38.95 148.559 39.411 149.111 39.82 149.7 40.173 150.321 40.467 150.968 40.699 151.634 40.866 152.314 40.966 153 41 153.686 40.966 154.366 40.866 155.032 40.699 155.679 40.467 156.3 40.173 156.889 39.82 157.441 39.411 157.95 38.95 158.411 38.441 158.82 37.889 159.173 37.3 159.467 36.679 159.699 36.032 159.866 35.366 159.966 34.686 160 34"/><polyline fill="none" stroke="#000" stroke-width="1" points="146 34 160 34"/><polyline fill="none" stroke="#000" stroke-width="1" points="153 41 153 27"/><polyline fill="none" stroke="#000" stroke-width="1" points="222 34 229 27 236 34 229 41 222 34"/><polyline fill="none" stroke="#000" stroke-width="1" points="268 24.666 276.083 38.666 259.917 38.666 268 24.666"/><polyline fill="none" stroke="#000" stroke-width="1" points="306 43.334 297.917 29.334 314.083 29.334 306 43.334"/><polyline fill="none" stroke="#000" stroke-width="1" points="337 34 344 27 351 34 344 41 337 34 351 34"/><polyline fill="none" stroke="#000" stroke-width="1" points="344 41 344 27"/><polyline fill="none" stroke="#000" stroke-width="1" points="390 34 389.966 33.314 389.866 32.634 389.699 31.968 389.467 31.321 389.173 30.7 388.82 30.111 388.411 29.559 387.95 29.05 387.441 28.589 386.889 28.18 386.3 27.827 385.679 27.533 385.032 27.301 384.366 27.134 383.686 27.034 383 27 382.314 27.034 381.634 27.134 380.968 27.301 380.321 27.533 379.7 27.827 379.111 28.18 378.559 28.589 378.05 29.05 377.589 29.559 377.18 30.111 376.827 30.7 376.533 31.321 376.301 31.968 376.134 32.634 376.034 33.314 376 34 376.034 34.686 376.134 35.366 376.301 36.032 376.533 36.679 376.827 37.3 377.18 37.889 377.589 38.441 378.05 38.95 378.559 39.411 379.111 39.82 379.7 40.173 380.321 40.467 380.968 40.699 381.634 40.866 382.314 40.966 383 41 383.686 40.966 384.366 40.866 385.032 40.699 385.679 40.467 386.3 40.173 386.889 39.82 387.441 39.411 387.95 38.95 388.411 38.441 388.82 37.889 389.173 37.3 389.467 36.679 389.699 36.032 389.866 35.366 389.966 34.686 390 34"/><polyline fill="none" stroke="#000" stroke-width="1" points="414 34 428 34"/><polyline fill="none" stroke="#000" stroke-width="1" points="421 41 421 27"/><polyline fill="none" stroke="#000" stroke-width="1" points="416.05 29.05 425.95 38.95"/><polyline fill="none" stroke="#000" stroke-width="1" points="416.05 38.95 425.95 29.05"/><polyline fill="none" stroke="#000" stroke-width="1" points="452 27 452 41 466 41 466 27 452 27"/><polyline fill="none" stroke="#000" stroke-width="1" points="506.333 34 492.333 42.083 492.333 25.917 506.333 34"/><polyline fill="none" stroke="#000" stroke-width="1" points="526.667 34 540.667 25.917 540.667 42.083 526.667 34"/><polyline fill="none" stroke="#000" stroke-width="1" points="574 25.6 572.114 31.404 566.011 31.404 570.949 34.992 569.062 40.796 574 37.209 578.938 40.796 577.051 34.992 581.989 31.404 575.886 31.404 574 25.6"/><polyline fill="none" stroke="#00f" stroke-width="1" points="69 60 83 60"/><polyline fill="none" stroke="#00f" stroke-width="1" points="76 67 76 53"/><polyline fill="none" stroke="#00f" stroke-width="1" points="108 53 122 67"/><polyline fill="none" stroke="#00f" stroke-width="1" points="108 67 122 53"/><polyline fill="none" stroke="#00f" stroke-width="1" points="160 60 159.966 59.314 159.866 58.634 159.699 57.968 159.467 57.321 159.173 56.7 158.82 56.111 158.411 55.559 157.95 55.05 157.441 54.589 156.889 54.18 156.3 53.827 155.679 53.533 155.032 53.301 154.366 53.134 153.686 53.034 153 53 152.314 53.034 151.634 53.134 150.968 53.301 150.321 53.533 149.7 53.827 149.111 54.18 148.559 54.589 148.05 55.05 147.589 55.559 147.18 56.111 146.827 56.7 146.533 57.321 146.301 57.968 146.134 58.634 146.034 59.314 146 60 146.034 60.686 146.134 61.366 146.301 62.032 146.533 62.679 146.827 63.3 147.18 63.889 147.589 64.441 148.05 64.95 148.559 65.411 149.111 65.82 149.7 66.173 150.321 66.467 150.968 66.699 151.634 66.866 152.314 66.966 153 67 153.686 66.966 154.366 66.866 155.032 66.699 155.679 66.467 156.3 66.173 156.889 65.82 157.441 65.411 157.95 64.95 158.411 64.441 158.82 63.889 159.173 63.3 159.467 62.679 159.699 62.032 159.866 61.366 159.966 60.686 160 60"/><polyline fill="none" stroke="#00f" stroke-width="1" points="146 60 160 60"/><polyline fill="none" stroke="#00f" stroke-width="1" points="153 67 153 53"/><polyline fill="none" stroke="#00f" stroke-width="1" points="222 60 229 53 236 60 229 67 222 60"/><polyline fill="none" stroke="#00f" stroke-width="1" points="268 50.666 276.083 64.666 259.917 64.666 268 50.666"/><polyline fill="none" stroke="#00f" stroke-width="1" points="306 69.334 297.917 55.334 314.083 55.334 306 69.334"/><polyline fill="none" stroke="#00f" stroke-width="1" points="337 60 344 53 351 60 344 67 337 60 351 60"/><polyline fill="none" stroke="#00f" stroke-width="1" points="344 67 344 53"/><polyline fill="none" stroke="#00f" stroke-width="1" points="390 60 389.966 59.314 389.866 58.634 389.699 57.968 389.467 57.321 389.173 56.7 388.82 56.111 388.411 55.559 387.95 55.05 387.441 54.589 386.889 54.18 386.3 53.827 385.679 53.533 385.032 53.301 384.366 53.134 383.686 53.034 383 53 382.314 53.034 381.634 53.134 380.968 53.301 380.321 53.533 379.7 53.827 379.111 54.18 378.559 54.589 378.05 55.05 377.589 55.559 377.18 56.111 376.827 56.7 376.533 57.321 376.301 57.968 376.134 58.634 376.034 59.314 376 60 376.034 60.686 376.134 61.366 376.301 62.032 376.533 62.679 376.827 63.3 377.18 63.889 377.589 64.441 378.05 64.95 378.559 65.411 379.111 65.82 379.7 66.173 380.321 66.467 380.968 66.699 381.634 66.866 382.314 66.966 383 67 383.686 66.966 384.366 66.866 385.032 66.699 385.679 66.467 386.3 66.173 386.889 65.82 387.441 65.411 387.95 64.95 388.411 64.441 388.82 63.889 389.173 63.3 389.467 62.679 389.699 62.032 389.866 61.366 389.966 60.686 390 60"/><polyline fill="none" stroke="#00f" stroke-width="1" points="414 60 428 60"/><polyline fill="none" stroke="#00f" stroke-width="1" points="421 67 421 53"/><polyline fill="none" stroke="#00f" stroke-width="1" points="416.05 55.05 425.95 64.95"/><polyline fill="none" stroke="#00f" stroke-width="1" points="416.05 64.95 425.95 55.05"/><polyline fill="none" stroke="#00f" stroke-width="1" points="452 53 452 67 466 67 466 53 452 53"/><polyline fill="none" stroke="#00f" stroke-width="1" points="506.333 60 492.333 68.083 492.333 51.917 506.333 60"/><polyline fill="none" stroke="#00f" stroke-width="1" points="526.667 60 540.667 51.917 540.667 68.083 526.667 60"/><polyline fill="none" stroke="#00f" stroke-width="1" points="574 51.6 572.114 57.404 566.011 57.404 570.949 60.992 569.062 66.796 574 63.209 578.938 66.796 577.051 60.992 581.989 57.404 575.886 57.404 574 51.6"/></g></svg>